<?xml version="1.0" encoding="UTF-8" standalone="no"?>
<!-- Created with Inkscape (http://www.inkscape.org/) -->

<svg
   viewBox="0 0 24.878529 14.603293"
   version="1.1"
   id="svg94626"
   inkscape:version="1.1.1 (3bf5ae0, 2021-09-20)"
   sodipodi:docname="first-text.svg"
   xmlns:inkscape="http://www.inkscape.org/namespaces/inkscape"
   xmlns:sodipodi="http://sodipodi.sourceforge.net/DTD/sodipodi-0.dtd"
   xmlns="http://www.w3.org/2000/svg"
   xmlns:svg="http://www.w3.org/2000/svg">
  <sodipodi:namedview
     id="namedview94628"
     pagecolor="#ffffff"
     bordercolor="#000000"
     borderopacity="0.6627451"
     inkscape:pageshadow="0"
     inkscape:pageopacity="0"
     inkscape:pagecheckerboard="0"
     inkscape:document-units="mm"
     showgrid="false"
     fit-margin-top="0"
     fit-margin-left="0"
     fit-margin-right="0"
     fit-margin-bottom="0"
     inkscape:zoom="2.6809743"
     inkscape:cx="4.2894853"
     inkscape:cy="-12.868456"
     inkscape:window-width="1294"
     inkscape:window-height="704"
     inkscape:window-x="72"
     inkscape:window-y="27"
     inkscape:window-maximized="1"
     inkscape:current-layer="layer1" />
  <defs
     id="defs94623">
    <filter
       inkscape:collect="always"
       style="color-interpolation-filters:sRGB"
       id="filter94091"
       x="-0.14803004"
       y="-0.14717158"
       width="1.2960601"
       height="1.295502">
      <feGaussianBlur
         inkscape:collect="always"
         stdDeviation="0.26594151"
         id="feGaussianBlur94093" />
    </filter>
    <filter
       inkscape:collect="always"
       style="color-interpolation-filters:sRGB"
       id="filter94095"
       x="-0.13301364"
       y="-0.14694216"
       width="1.2660273"
       height="1.2938866">
      <feGaussianBlur
         inkscape:collect="always"
         stdDeviation="0.24791372"
         id="feGaussianBlur94097" />
    </filter>
    <filter
       inkscape:collect="always"
       style="color-interpolation-filters:sRGB"
       id="filter94099"
       x="-0.1883791"
       y="-0.14274059"
       width="1.3761527"
       height="1.2854812">
      <feGaussianBlur
         inkscape:collect="always"
         stdDeviation="0.23123525"
         id="feGaussianBlur94101" />
    </filter>
    <filter
       inkscape:collect="always"
       style="color-interpolation-filters:sRGB"
       id="filter94103"
       x="-0.21315279"
       y="-0.14044589"
       width="1.4263056"
       height="1.2808825">
      <feGaussianBlur
         inkscape:collect="always"
         stdDeviation="0.21806586"
         id="feGaussianBlur94105" />
    </filter>
    <filter
       inkscape:collect="always"
       style="color-interpolation-filters:sRGB"
       id="filter94107"
       x="-0.21262984"
       y="-0.14139783"
       width="1.4252475"
       height="1.2827957">
      <feGaussianBlur
         inkscape:collect="always"
         stdDeviation="0.2171292"
         id="feGaussianBlur94109" />
    </filter>
    <filter
       inkscape:collect="always"
       style="color-interpolation-filters:sRGB"
       id="filter94111"
       x="-0.21262983"
       y="-0.14139783"
       width="1.4252475"
       height="1.2827957">
      <feGaussianBlur
         inkscape:collect="always"
         stdDeviation="0.2171292"
         id="feGaussianBlur94113" />
    </filter>
    <filter
       inkscape:collect="always"
       style="color-interpolation-filters:sRGB"
       id="filter94115"
       x="-0.54621798"
       y="-0.12904479"
       width="2.092436"
       height="1.2580896">
      <feGaussianBlur
         inkscape:collect="always"
         stdDeviation="0.1645646"
         id="feGaussianBlur94117" />
    </filter>
    <filter
       inkscape:collect="always"
       style="color-interpolation-filters:sRGB"
       id="filter94119"
       x="-0.16840895"
       y="-0.14525477"
       width="1.3368112"
       height="1.290509">
      <feGaussianBlur
         inkscape:collect="always"
         stdDeviation="0.24502104"
         id="feGaussianBlur94121" />
    </filter>
    <filter
       inkscape:collect="always"
       style="color-interpolation-filters:sRGB"
       id="filter94123"
       x="-0.16074866"
       y="-0.14475439"
       width="1.3214859"
       height="1.2895088">
      <feGaussianBlur
         inkscape:collect="always"
         stdDeviation="0.25358262"
         id="feGaussianBlur94125" />
    </filter>
  </defs>
  <g
     inkscape:label="Layer 1"
     inkscape:groupmode="layer"
     id="layer1"
     transform="translate(-83.115628,-46.588925)">
    <text
       xml:space="preserve"
       style="font-style:normal;font-weight:normal;font-size:2.11667px;line-height:1.25;font-family:sans-serif;fill:#000000;fill-opacity:1;stroke:#008671;stroke-width:0.0649999;stroke-miterlimit:4;stroke-dasharray:none;stroke-opacity:1"
       x="82.993103"
       y="47.927807"
       id="text1775-1"><tspan
         sodipodi:role="line"
         id="tspan1773-0"
         x="82.993103"
         y="47.927807"
         style="font-style:normal;font-variant:normal;font-weight:normal;font-stretch:normal;font-size:2.11667px;font-family:Dyuthi;-inkscape-font-specification:'Dyuthi, Normal';font-variant-ligatures:normal;font-variant-caps:normal;font-variant-numeric:normal;font-variant-east-asian:normal;fill:#ffffff;stroke:#008671;stroke-width:0.0649999;stroke-miterlimit:4;stroke-dasharray:none;stroke-opacity:1">HOLA, SOY</tspan></text>
    <text
       xml:space="preserve"
       style="font-style:normal;font-weight:normal;font-size:3.52777px;line-height:0.65;font-family:sans-serif;letter-spacing:-0.0079375px;fill:#000000;fill-opacity:1;stroke:#008671;stroke-width:0.0649999;stroke-miterlimit:4;stroke-dasharray:none;stroke-opacity:1"
       x="82.941422"
       y="58.699097"
       id="text1775-1-2"><tspan
         sodipodi:role="line"
         x="82.941422"
         y="58.699097"
         style="font-style:normal;font-variant:normal;font-weight:normal;font-stretch:normal;font-size:2.82223px;font-family:Dyuthi;-inkscape-font-specification:'Dyuthi, Normal';font-variant-ligatures:normal;font-variant-caps:normal;font-variant-numeric:normal;font-variant-east-asian:normal;fill:#ffffff;stroke:#008671;stroke-width:0.0649999;stroke-miterlimit:4;stroke-dasharray:none;stroke-opacity:1"
         id="tspan27564">PROGRAMADOR WEB</tspan><tspan
         sodipodi:role="line"
         x="82.941422"
         y="61.114243"
         style="font-style:normal;font-variant:normal;font-weight:normal;font-stretch:normal;font-size:3.52777px;font-family:Dyuthi;-inkscape-font-specification:'Dyuthi, Normal';font-variant-ligatures:normal;font-variant-caps:normal;font-variant-numeric:normal;font-variant-east-asian:normal;fill:#ffffff;stroke:#008671;stroke-width:0.0649999;stroke-miterlimit:4;stroke-dasharray:none;stroke-opacity:1"
         id="tspan54092"><tspan
   style="font-size:2.82223px;stroke:#008671;stroke-width:0.0649999;stroke-miterlimit:4;stroke-dasharray:none;stroke-opacity:1"
   id="tspan56518">FULL STACK JR</tspan>.</tspan></text>
    <g
       id="g94154"
       transform="matrix(0.26458333,0,0,0.26458333,32.394764,4.792184)">
      <path
         d="m 273.95598,184.95223 q 1.003,1.24992 2.31944,1.24992 1.31644,0 2.37169,-1.22908 1.05523,-1.22908 1.05523,-4.61427 0,-1.71863 -1.05523,-2.94771 -1.05525,-1.22908 -2.37169,-1.22908 -1.31644,0 -2.309,1.2395 -1.003,1.2395 -1.003,2.93729 -0.0104,3.34352 0.99256,4.59343 z m 2.82094,-10.47843 q 2.65378,0.3333 4.41948,2.0936 1.76571,1.76029 1.76571,4.59343 0,2.83314 -1.67167,4.62468 -1.66123,1.78113 -4.51352,1.94778 -0.19851,0.0104 -0.2612,0.0312 -0.0627,0.0209 -0.094,0.0104 h -0.17762 q -0.0418,0 -0.094,0 -0.0627,0.0104 -0.2612,-0.0416 -2.93587,-0.28123 -4.5553,-1.98944 -1.61944,-1.70822 -1.61944,-4.58302 0,-2.86438 1.81794,-4.65592 1.81795,-1.79155 4.3568,-2.03111 0.30298,-0.0313 0.44926,-0.0416 0.15672,0.0104 0.43881,0.0416 z"
         style="font-size:21.3646px;line-height:1.25;font-family:Dyuthi;-inkscape-font-specification:'Dyuthi, Normal';letter-spacing:2.91427px;fill:none;stroke:#008671;stroke-width:2.64567;filter:url(#filter94091);stroke-opacity:1"
         id="path93961" />
      <path
         d="m 273.14642,184.59288 q 1,1.25 2.31249,1.25 1.3125,0 2.36458,-1.22917 1.05208,-1.22916 1.05208,-4.61457 0,-1.71875 -1.05208,-2.94792 -1.05208,-1.22916 -2.36458,-1.22916 -1.31249,0 -2.30208,1.23958 -1,1.23958 -1,2.9375 -0.0104,3.34374 0.98959,4.59374 z m 2.81249,-10.47915 q 2.64583,0.33333 4.40625,2.09375 1.76041,1.76041 1.76041,4.59374 0,2.83333 -1.66666,4.62499 -1.65625,1.78125 -4.5,1.94791 -0.19791,0.0104 -0.26041,0.0312 -0.0625,0.0208 -0.0937,0.0104 h -0.17709 q -0.0417,0 -0.0937,0 -0.0625,0.0104 -0.26041,-0.0417 -2.92708,-0.28124 -4.54166,-1.98958 -1.61458,-1.70833 -1.61458,-4.58332 0,-2.86458 1.81249,-4.65624 1.8125,-1.79167 4.34375,-2.03125 0.30208,-0.0312 0.44791,-0.0417 0.15625,0.0104 0.4375,0.0417 z"
         style="font-size:21.3333px;line-height:1.25;font-family:Dyuthi;-inkscape-font-specification:'Dyuthi, Normal';letter-spacing:2.91px;fill:#ffffff;stroke:#ffffff;stroke-width:1.88976"
         id="path93980" />
      <path
         d="m 273.20642,184.47384 q 1,1.25 2.31249,1.25 1.3125,0 2.36458,-1.22916 1.05208,-1.22917 1.05208,-4.61458 0,-1.71875 -1.05208,-2.94791 -1.05208,-1.22916 -2.36458,-1.22916 -1.31249,0 -2.30208,1.23958 -1,1.23958 -1,2.93749 -0.0104,3.34375 0.98959,4.59374 z m 2.81249,-10.47915 q 2.64583,0.33334 4.40625,2.09375 1.76041,1.76041 1.76041,4.59374 0,2.83333 -1.66666,4.625 -1.65625,1.78124 -4.5,1.94791 -0.19791,0.0104 -0.26041,0.0312 -0.0625,0.0208 -0.0937,0.0104 h -0.17709 q -0.0417,0 -0.0937,0 -0.0625,0.0104 -0.26041,-0.0417 -2.92708,-0.28125 -4.54166,-1.98958 -1.61458,-1.70833 -1.61458,-4.58333 0,-2.86458 1.81249,-4.65624 1.8125,-1.79166 4.34375,-2.03125 0.30208,-0.0312 0.44791,-0.0417 0.15625,0.0104 0.4375,0.0417 z"
         style="font-size:21.3333px;line-height:1.25;font-family:Dyuthi;-inkscape-font-specification:'Dyuthi, Normal';letter-spacing:2.91px;fill:none;stroke:#00aa7d;stroke-width:0.377953"
         id="path91674" />
      <path
         d="m 258.79733,178.12979 0.1985,8.22859 q 0.0104,0.56247 -0.39701,0.96869 -0.40748,0.39581 -0.98211,0.39581 h -0.22985 q -0.54329,0 -0.95077,-0.41664 -0.41792,-0.41664 -0.41792,-0.94786 v -9.13477 q 0,-1.06243 0.74181,-1.81238 0.7418,-0.73953 1.81794,-0.73953 h 0.0314 q 0.84629,0 1.5254,0.49997 0.67912,0.49996 0.91942,1.32281 l 2.17318,7.53073 2.15227,-7.50989 q 0.22986,-0.82286 0.91943,-1.33324 0.68956,-0.5208 1.54629,-0.51038 h 0.0314 q 1.05523,0 1.79704,0.73953 0.7627,0.73953 0.7627,1.81238 v 9.13477 q 0,0.55206 -0.42837,0.95827 -0.42836,0.40623 -1.15971,0.40623 h -0.0209 q -0.57463,0 -0.9821,-0.39581 -0.40747,-0.40622 -0.40747,-0.96869 l 0.18806,-8.22859 -2.2672,7.99944 q -0.19852,0.70829 -0.81494,1.15618 -0.61643,0.43747 -1.31644,0.43747 h -0.0418 q -0.72091,0 -1.306,-0.44789 -0.59553,-0.4583 -0.79404,-1.14576 z"
         style="font-size:21.3646px;line-height:1.25;font-family:Dyuthi;-inkscape-font-specification:'Dyuthi, Normal';letter-spacing:2.91427px;fill:none;stroke:#008671;stroke-width:2.64567;filter:url(#filter94095);stroke-opacity:1"
         id="path93959" />
      <path
         d="m 258.04872,177.76997 0.19791,8.22916 q 0.0104,0.5625 -0.39583,0.96875 -0.40625,0.39583 -0.97916,0.39583 h -0.22917 q -0.54167,0 -0.94791,-0.41667 -0.41667,-0.41666 -0.41667,-0.94791 v -9.13541 q 0,-1.06249 0.73958,-1.81249 0.73958,-0.73958 1.8125,-0.73958 h 0.0312 q 0.84375,0 1.52083,0.49999 0.67708,0.5 0.91666,1.32292 l 2.16667,7.53124 2.14583,-7.51041 q 0.22916,-0.82291 0.91666,-1.33333 0.6875,-0.52083 1.54167,-0.51041 h 0.0312 q 1.05208,0 1.79166,0.73958 0.76042,0.73958 0.76042,1.81249 v 9.13541 q 0,0.55208 -0.42709,0.95833 -0.42708,0.40625 -1.15624,0.40625 h -0.0208 q -0.57291,0 -0.97916,-0.39583 -0.40625,-0.40625 -0.40625,-0.96875 l 0.1875,-8.22916 -2.26042,7.99999 q -0.19791,0.70833 -0.81249,1.15625 -0.61459,0.4375 -1.3125,0.4375 h -0.0417 q -0.71875,0 -1.30208,-0.44792 -0.59375,-0.45833 -0.79167,-1.14583 z"
         style="font-size:21.3333px;line-height:1.25;font-family:Dyuthi;-inkscape-font-specification:'Dyuthi, Normal';letter-spacing:2.91px;fill:#ffffff;stroke:#ffffff;stroke-width:1.88976"
         id="path93978" />
      <path
         d="m 258.10872,177.65094 0.19791,8.22915 q 0.0104,0.5625 -0.39583,0.96875 -0.40625,0.39583 -0.97916,0.39583 h -0.22917 q -0.54167,0 -0.94791,-0.41666 -0.41667,-0.41667 -0.41667,-0.94792 v -9.1354 q 0,-1.0625 0.73958,-1.8125 0.73958,-0.73958 1.8125,-0.73958 h 0.0312 q 0.84375,0 1.52083,0.5 0.67708,0.5 0.91666,1.32292 l 2.16667,7.53123 2.14583,-7.5104 q 0.22916,-0.82292 0.91666,-1.33333 0.6875,-0.52084 1.54167,-0.51042 h 0.0312 q 1.05208,0 1.79166,0.73958 0.76042,0.73959 0.76042,1.8125 v 9.1354 q 0,0.55209 -0.42709,0.95833 -0.42708,0.40625 -1.15624,0.40625 h -0.0208 q -0.57291,0 -0.97916,-0.39583 -0.40625,-0.40625 -0.40625,-0.96875 l 0.1875,-8.22915 -2.26042,7.99999 q -0.19791,0.70833 -0.81249,1.15624 -0.61459,0.4375 -1.3125,0.4375 h -0.0417 q -0.71875,0 -1.30208,-0.44791 -0.59375,-0.45833 -0.79167,-1.14583 z"
         style="font-size:21.3333px;line-height:1.25;font-family:Dyuthi;-inkscape-font-specification:'Dyuthi, Normal';letter-spacing:2.91px;fill:none;stroke:#00aa7d;stroke-width:0.377953"
         id="path91672" />
      <path
         d="m 248.84048,176.00494 v 5.4892 h 1.5045 q 0.7836,-0.0209 1.33734,-0.58329 0.55374,-0.57288 0.54329,-2.15611 0,-1.5728 -0.56418,-2.16651 -0.57465,-0.59371 -1.31645,-0.58329 z m 4.76426,6.19748 q 0,0 1.90153,3.18728 0.33433,0.56247 0.13582,1.37491 -0.20895,0.81244 -0.66867,0.81244 h -0.0209 q -0.53285,0.31248 -1.11793,0.14583 -1.22242,-0.31248 -1.71347,-1.78113 l -0.98211,-2.90605 -2.29854,0.0416 v 3.2081 q 0,0.64579 -0.47016,1.07285 -0.47016,0.42705 -1.05525,0.42705 h -0.0418 q -0.62688,0 -1.07614,-0.44788 -0.44927,-0.44789 -0.44927,-1.05202 v -10.11388 q 0,-0.62495 0.45972,-1.08326 0.4597,-0.45829 1.10747,-0.45829 h 3.60455 q 0.38657,0 0.65822,0.0625 1.52539,0.22915 2.54929,1.41657 1.0239,1.18741 1.0239,2.59356 0,1.40616 -0.80448,2.65608 -0.29255,0.45829 -0.74181,0.84368 z"
         style="font-size:21.3646px;line-height:1.25;font-family:Dyuthi;-inkscape-font-specification:'Dyuthi, Normal';letter-spacing:2.91427px;fill:none;stroke:#008671;stroke-width:2.64567;filter:url(#filter94099);stroke-opacity:1"
         id="path93957" />
      <path
         d="m 248.13426,175.64498 v 5.48957 h 1.49999 q 0.78125,-0.0208 1.33333,-0.58333 0.55209,-0.57292 0.54167,-2.15625 0,-1.57291 -0.5625,-2.16666 -0.57291,-0.59375 -1.3125,-0.58333 z m 4.74999,6.1979 q 0,0 1.89583,3.1875 0.33333,0.5625 0.13541,1.375 -0.20833,0.8125 -0.66666,0.8125 h -0.0208 q -0.53125,0.31249 -1.11459,0.14583 -1.21874,-0.3125 -1.70833,-1.78125 l -0.97916,-2.90624 -2.29166,0.0417 v 3.20833 q 0,0.64583 -0.46875,1.07292 -0.46875,0.42708 -1.05209,0.42708 h -0.0417 q -0.625,0 -1.07292,-0.44792 -0.44791,-0.44791 -0.44791,-1.05208 v -10.11457 q 0,-0.625 0.45833,-1.08333 0.45833,-0.45833 1.10416,-0.45833 h 3.59375 q 0.38541,0 0.65625,0.0625 1.52083,0.22917 2.54166,1.41666 1.02083,1.1875 1.02083,2.59375 0,1.40625 -0.80208,2.65625 -0.29167,0.45833 -0.73958,0.84374 z"
         style="font-size:21.3333px;line-height:1.25;font-family:Dyuthi;-inkscape-font-specification:'Dyuthi, Normal';letter-spacing:2.91px;fill:#ffffff;stroke:#ffffff;stroke-width:1.88976"
         id="path93976" />
      <path
         d="m 248.19426,175.52594 v 5.48958 h 1.49999 q 0.78125,-0.0208 1.33333,-0.58334 0.55209,-0.57291 0.54167,-2.15624 0,-1.57292 -0.5625,-2.16667 -0.57291,-0.59374 -1.3125,-0.58333 z m 4.74999,6.19791 q 0,0 1.89583,3.18749 0.33333,0.5625 0.13541,1.375 -0.20833,0.8125 -0.66666,0.8125 h -0.0208 q -0.53125,0.3125 -1.11459,0.14583 -1.21874,-0.3125 -1.70833,-1.78124 l -0.97916,-2.90625 -2.29166,0.0417 v 3.20833 q 0,0.64583 -0.46875,1.07292 -0.46875,0.42708 -1.05209,0.42708 h -0.0417 q -0.625,0 -1.07292,-0.44792 -0.44791,-0.44792 -0.44791,-1.05208 v -10.11457 q 0,-0.625 0.45833,-1.08333 0.45833,-0.45834 1.10416,-0.45834 h 3.59375 q 0.38541,0 0.65625,0.0625 1.52083,0.22917 2.54166,1.41667 1.02083,1.1875 1.02083,2.59374 0,1.40625 -0.80208,2.65625 -0.29167,0.45833 -0.73958,0.84375 z"
         style="font-size:21.3333px;line-height:1.25;font-family:Dyuthi;-inkscape-font-specification:'Dyuthi, Normal';letter-spacing:2.91px;fill:none;stroke:#00aa7d;stroke-width:0.377953"
         id="path91670" />
      <path
         d="m 239.89421,185.35846 4.32545,-0.0834 q 0.45971,-0.0104 0.82539,0.32289 0.36568,0.33331 0.36568,0.85411 v 0.0416 q 0,0.48955 -0.34479,0.8437 -0.34478,0.34372 -0.84628,0.33331 h -5.6001 q -0.7627,0 -1.31644,-0.55204 -0.55375,-0.55206 -0.55375,-1.31242 v -9.41602 q 0,-0.74994 0.53285,-1.3124 0.53285,-0.55204 1.33734,-0.55204 h 5.318 q 0.59553,0 0.92987,0.41664 0.51195,0.62495 0.21941,1.21866 -0.29255,0.5937 -0.40747,0.68745 -0.35523,0.28123 -0.7627,0.2604 l -4.02246,-0.18749 v 2.95813 l 3.79261,-0.0938 q 0.47015,-0.0104 0.82538,0.3229 0.35523,0.33331 0.35523,0.83328 v 0.0416 q 0,0.49997 -0.35523,0.84369 -0.35523,0.34373 -0.82538,0.33332 l -3.79261,-0.0938 z"
         style="font-size:21.3646px;line-height:1.25;font-family:Dyuthi;-inkscape-font-specification:'Dyuthi, Normal';letter-spacing:2.91427px;fill:none;stroke:#008671;stroke-width:2.64567;filter:url(#filter94103);stroke-opacity:1"
         id="path93955" />
      <path
         d="m 239.22715,184.99913 4.3125,-0.0833 q 0.45833,-0.0104 0.82291,0.32291 0.36458,0.33333 0.36458,0.85417 v 0.0417 q 0,0.48959 -0.34375,0.84375 -0.34375,0.34375 -0.84374,0.33334 h -5.58333 q -0.76041,0 -1.3125,-0.55209 -0.55208,-0.55208 -0.55208,-1.3125 v -9.41665 q 0,-0.75 0.53125,-1.3125 0.53125,-0.55208 1.33333,-0.55208 h 5.30208 q 0.59374,0 0.92708,0.41667 0.51041,0.625 0.21875,1.21875 -0.29167,0.59375 -0.40625,0.6875 -0.35417,0.28125 -0.76042,0.26041 l -4.01041,-0.1875 v 2.95833 l 3.78125,-0.0937 q 0.46875,-0.0104 0.82291,0.32292 0.35417,0.33333 0.35417,0.83333 v 0.0417 q 0,0.49999 -0.35417,0.84374 -0.35416,0.34375 -0.82291,0.33334 l -3.78125,-0.0937 z"
         style="font-size:21.3333px;line-height:1.25;font-family:Dyuthi;-inkscape-font-specification:'Dyuthi, Normal';letter-spacing:2.91px;fill:#ffffff;stroke:#ffffff;stroke-width:1.88976"
         id="path93974" />
      <path
         d="m 239.28715,184.88009 4.3125,-0.0833 q 0.45833,-0.0104 0.82291,0.32292 0.36458,0.33333 0.36458,0.85416 v 0.0417 q 0,0.48959 -0.34375,0.84375 -0.34375,0.34375 -0.84374,0.33334 h -5.58333 q -0.76041,0 -1.3125,-0.55209 -0.55208,-0.55208 -0.55208,-1.31249 v -9.41666 q 0,-0.75 0.53125,-1.3125 0.53125,-0.55208 1.33333,-0.55208 h 5.30208 q 0.59374,0 0.92708,0.41666 0.51041,0.625 0.21875,1.21875 -0.29167,0.59375 -0.40625,0.6875 -0.35417,0.28125 -0.76042,0.26042 l -4.01041,-0.1875 v 2.95833 l 3.78125,-0.0937 q 0.46875,-0.0104 0.82291,0.32291 0.35417,0.33333 0.35417,0.83333 v 0.0417 q 0,0.5 -0.35417,0.84375 -0.35416,0.34375 -0.82291,0.33333 l -3.78125,-0.0937 z"
         style="font-size:21.3333px;line-height:1.25;font-family:Dyuthi;-inkscape-font-specification:'Dyuthi, Normal';letter-spacing:2.91px;fill:none;stroke:#00aa7d;stroke-width:0.377953"
         id="path91668" />
      <path
         d="m 230.52304,174.55712 q 0.80449,0 1.2851,0.44789 0.4806,0.44788 0.47016,1.10409 l -0.17763,9.04104 4.49262,-0.19791 q 0.49105,-0.0312 0.85673,0.35415 0.36568,0.37497 0.35524,0.86452 v 0.0209 q 0,0.68745 -0.34479,1.05201 -0.35522,0.35414 -0.86718,0.35414 h -6.00757 q -0.60598,0 -1.03434,-0.41663 -0.41792,-0.41664 -0.41792,-1.03118 v -10.04097 q 0,-0.62495 0.44926,-1.08326 0.44926,-0.46872 0.90897,-0.46872 z"
         style="font-size:21.3646px;line-height:1.25;font-family:Dyuthi;-inkscape-font-specification:'Dyuthi, Normal';letter-spacing:2.91427px;fill:none;stroke:#008671;stroke-width:2.64567;filter:url(#filter94107);stroke-opacity:1"
         id="path93953" />
      <path
         d="m 229.90043,174.19706 q 0.80208,0 1.28125,0.44792 0.47917,0.44791 0.46875,1.10416 l -0.17708,9.04166 4.47916,-0.19792 q 0.48958,-0.0312 0.85416,0.35417 0.36458,0.37499 0.35417,0.86458 v 0.0208 q 0,0.6875 -0.34375,1.05208 -0.35417,0.35417 -0.86458,0.35417 h -5.98958 q -0.60416,0 -1.03125,-0.41667 -0.41666,-0.41666 -0.41666,-1.03125 v -10.04165 q 0,-0.625 0.44791,-1.08333 0.44792,-0.46875 0.90625,-0.46875 z"
         style="font-size:21.3333px;line-height:1.25;font-family:Dyuthi;-inkscape-font-specification:'Dyuthi, Normal';letter-spacing:2.91px;fill:#ffffff;stroke:#ffffff;stroke-width:1.88976"
         id="path93972" />
      <path
         d="m 229.96043,174.07803 q 0.80208,0 1.28125,0.44791 0.47917,0.44792 0.46875,1.10417 l -0.17708,9.04165 4.47916,-0.19792 q 0.48958,-0.0312 0.85416,0.35417 0.36458,0.375 0.35417,0.86458 v 0.0208 q 0,0.6875 -0.34375,1.05209 -0.35417,0.35416 -0.86458,0.35416 h -5.98958 q -0.60416,0 -1.03125,-0.41666 -0.41666,-0.41667 -0.41666,-1.03125 v -10.04165 q 0,-0.625 0.44791,-1.08333 0.44792,-0.46875 0.90625,-0.46875 z"
         style="font-size:21.3333px;line-height:1.25;font-family:Dyuthi;-inkscape-font-specification:'Dyuthi, Normal';letter-spacing:2.91px;fill:none;stroke:#00aa7d;stroke-width:0.377953"
         id="path91666" />
      <path
         d="m 223.26881,174.55712 q 0.80449,0 1.2851,0.44789 0.48061,0.44788 0.47015,1.10409 l -0.17761,9.04104 4.49261,-0.19791 q 0.49106,-0.0312 0.85674,0.35415 0.36568,0.37497 0.35523,0.86452 v 0.0209 q 0,0.68745 -0.34479,1.05201 -0.35522,0.35414 -0.86718,0.35414 h -6.00756 q -0.60598,0 -1.03435,-0.41663 -0.41792,-0.41664 -0.41792,-1.03118 v -10.04097 q 0,-0.62495 0.44927,-1.08326 0.44926,-0.46872 0.90896,-0.46872 z"
         style="font-size:21.3646px;line-height:1.25;font-family:Dyuthi;-inkscape-font-specification:'Dyuthi, Normal';letter-spacing:2.91427px;fill:none;stroke:#008671;stroke-width:2.64567;filter:url(#filter94111);stroke-opacity:1"
         id="path93951" />
      <path
         d="m 222.6854,174.19706 q 0.80209,0 1.28125,0.44792 0.47917,0.44791 0.46875,1.10416 l -0.17708,9.04166 4.47916,-0.19792 q 0.48958,-0.0312 0.85416,0.35417 0.36459,0.37499 0.35417,0.86458 v 0.0208 q 0,0.6875 -0.34375,1.05208 -0.35417,0.35417 -0.86458,0.35417 h -5.98958 q -0.60416,0 -1.03124,-0.41667 -0.41667,-0.41666 -0.41667,-1.03125 v -10.04165 q 0,-0.625 0.44792,-1.08333 0.44791,-0.46875 0.90624,-0.46875 z"
         style="font-size:21.3333px;line-height:1.25;font-family:Dyuthi;-inkscape-font-specification:'Dyuthi, Normal';letter-spacing:2.91px;fill:#ffffff;stroke:#ffffff;stroke-width:1.88976"
         id="path93970" />
      <path
         d="m 222.7454,174.07803 q 0.80209,0 1.28125,0.44791 0.47917,0.44792 0.46875,1.10417 l -0.17708,9.04165 4.47916,-0.19792 q 0.48958,-0.0312 0.85416,0.35417 0.36459,0.375 0.35417,0.86458 v 0.0208 q 0,0.6875 -0.34375,1.05209 -0.35417,0.35416 -0.86458,0.35416 h -5.98958 q -0.60416,0 -1.03124,-0.41666 -0.41667,-0.41667 -0.41667,-1.03125 v -10.04165 q 0,-0.625 0.44792,-1.08333 0.44791,-0.46875 0.90624,-0.46875 z"
         style="font-size:21.3333px;line-height:1.25;font-family:Dyuthi;-inkscape-font-specification:'Dyuthi, Normal';letter-spacing:2.91px;fill:none;stroke:#00aa7d;stroke-width:0.377953"
         id="path91664" />
      <path
         d="m 220.30403,186.1709 q 0,0.63538 -0.44926,1.09367 -0.44926,0.45831 -1.09703,0.45831 h -0.0314 q -0.64777,0 -1.10748,-0.44789 -0.45971,-0.4583 -0.45971,-1.10409 v -10.19721 q 0,-0.64578 0.45971,-1.10409 0.45971,-0.4583 1.10748,-0.4583 h 0.0314 q 0.62687,0 1.08659,0.44788 0.4597,0.44789 0.4597,1.11451 z"
         style="font-size:21.3646px;line-height:1.25;font-family:Dyuthi;-inkscape-font-specification:'Dyuthi, Normal';letter-spacing:2.91427px;fill:none;stroke:#008671;stroke-width:2.64567;filter:url(#filter94115);stroke-opacity:1"
         id="path93949" />
      <path
         d="m 219.7382,185.81163 q 0,0.63541 -0.44792,1.09375 -0.44791,0.45833 -1.09375,0.45833 h -0.0312 q -0.64583,0 -1.10416,-0.44792 -0.45833,-0.45833 -0.45833,-1.10416 v -10.1979 q 0,-0.64584 0.45833,-1.10417 0.45833,-0.45833 1.10416,-0.45833 h 0.0312 q 0.625,0 1.08334,0.44792 0.45833,0.44791 0.45833,1.11458 z"
         style="font-size:21.3333px;line-height:1.25;font-family:Dyuthi;-inkscape-font-specification:'Dyuthi, Normal';letter-spacing:2.91px;fill:#ffffff;stroke:#ffffff;stroke-width:1.88976"
         id="path93968" />
      <path
         d="m 219.7982,185.69259 q 0,0.63542 -0.44792,1.09375 -0.44791,0.45833 -1.09375,0.45833 h -0.0312 q -0.64583,0 -1.10416,-0.44791 -0.45838,-0.45833 -0.45838,-1.10417 v -10.1979 q 0,-0.64583 0.45833,-1.10416 0.45833,-0.45834 1.10416,-0.45834 h 0.0312 q 0.625,0 1.08334,0.44792 0.45833,0.44792 0.45833,1.11458 z"
         style="font-size:21.3333px;line-height:1.25;font-family:Dyuthi;-inkscape-font-specification:'Dyuthi, Normal';letter-spacing:2.91px;fill:none;stroke:#00aa7d;stroke-width:0.377953"
         id="path91662" />
      <path
         d="m 213.29858,182.46282 q 0,0 -0.0627,-6.4058 -0.0104,-0.62495 0.43881,-1.08326 0.45972,-0.44788 1.10749,-0.4583 h 0.0418 q 0.82539,0 1.27465,0.44789 0.44927,0.44788 0.43881,1.09367 v 6.06208 q 0,2.2915 -1.60898,3.92681 -1.60898,1.6353 -3.91798,1.62489 h -0.11493 q -2.37168,0 -4.04335,-1.66655 -1.66122,-1.65614 -1.66122,-4.03098 v -5.91625 q 0,-0.64579 0.44926,-1.08326 0.44926,-0.44788 1.2851,-0.4583 h 0.0418 q 0.63733,0 1.08659,0.4583 0.44927,0.45831 0.43882,1.08326 l -0.0627,6.35372 q -0.0104,1.05202 0.76271,1.79154 0.77315,0.74995 1.66122,0.74995 h 0.0731 q 0.87763,0 1.62988,-0.73952 0.75225,-0.74995 0.74181,-1.74989 z"
         style="font-size:21.3646px;line-height:1.25;font-family:Dyuthi;-inkscape-font-specification:'Dyuthi, Normal';letter-spacing:2.91427px;fill:none;stroke:#008671;stroke-width:2.64567;filter:url(#filter94119);stroke-opacity:1"
         id="path93947" />
      <path
         d="m 212.76526,182.1033 q 0,0 -0.0625,-6.40624 -0.0104,-0.625 0.4375,-1.08333 0.45834,-0.44792 1.10417,-0.45833 h 0.0417 q 0.82291,0 1.27083,0.44791 0.44791,0.44792 0.4375,1.09375 v 6.06249 q 0,2.29166 -1.60417,3.92708 -1.60416,1.63541 -3.90624,1.625 h -0.11458 q -2.36458,0 -4.03125,-1.66667 -1.65625,-1.65625 -1.65625,-4.03124 v -5.91666 q 0,-0.64583 0.44792,-1.08333 0.44792,-0.44792 1.28125,-0.45833 h 0.0417 q 0.63542,0 1.08334,0.45833 0.44791,0.45833 0.4375,1.08333 l -0.0625,6.35416 q -0.0104,1.05208 0.76041,1.79166 0.77083,0.75 1.65625,0.75 h 0.0729 q 0.875,0 1.625,-0.73958 0.75,-0.75 0.73958,-1.75 z"
         style="font-size:21.3333px;line-height:1.25;font-family:Dyuthi;-inkscape-font-specification:'Dyuthi, Normal';letter-spacing:2.91px;fill:#ffffff;stroke:#ffffff;stroke-width:1.88976"
         id="path93966" />
      <path
         d="m 212.82526,181.98426 q 0,0 -0.0625,-6.40623 -0.0104,-0.625 0.4375,-1.08334 0.45834,-0.44791 1.10417,-0.45833 h 0.0417 q 0.82291,0 1.27083,0.44792 0.44791,0.44791 0.4375,1.09374 v 6.0625 q 0,2.29166 -1.60417,3.92707 -1.60416,1.63542 -3.90624,1.625 h -0.11458 q -2.36458,0 -4.03125,-1.66666 -1.65625,-1.65625 -1.65625,-4.03125 v -5.91666 q 0,-0.64583 0.44792,-1.08333 0.44792,-0.44791 1.28125,-0.45833 h 0.0417 q 0.63542,0 1.08334,0.45833 0.44791,0.45834 0.4375,1.08333 l -0.0625,6.35416 q -0.0104,1.05208 0.76041,1.79167 0.77083,0.74999 1.65625,0.74999 h 0.0729 q 0.875,0 1.625,-0.73958 0.75,-0.75 0.73958,-1.75 z"
         style="font-size:21.3333px;line-height:1.25;font-family:Dyuthi;-inkscape-font-specification:'Dyuthi, Normal';letter-spacing:2.91px;fill:none;stroke:#00aa7d;stroke-width:0.377953"
         id="path91660" />
      <path
         d="m 201.44745,180.23381 q 0,0 2.92543,0 0.53284,-0.0209 0.90897,0.36456 0.37613,0.37497 0.36568,0.90618 v 3.90599 q -0.0209,0.71869 -0.48061,1.29157 -0.45971,0.55205 -0.99256,0.65621 -0.53283,0.10416 -1.37912,0.23956 -0.84629,0.14583 -1.88063,0.14583 -3.48961,0 -5.37025,-1.80196 -1.89107,-1.80196 -1.91198,-4.67676 0.0209,-3.20811 2.17318,-5.04132 2.15227,-1.82279 5.43293,-1.82279 0.7627,0 3.05081,0.18749 0.4597,0.0416 0.73135,0.41664 0.49105,0.76036 0.16717,1.67697 l -0.0209,0.0209 q -0.37612,0.92702 -1.27465,0.85411 l -2.91498,-0.29164 q -2.36123,-0.22916 -3.30155,0.78119 -1.35823,1.42699 -1.15972,3.42685 0.15672,1.67697 1.45227,2.83313 1.30599,1.15618 3.12393,1.15618 h 0.5224 q 0.35523,0 0.67912,-0.3229 0.32389,-0.32289 0.32389,-0.66662 v -1.52073 q 0,-0.34372 -0.22987,-0.53121 -0.27164,-0.30206 -0.5015,-0.18749 l -0.60597,0.30206 q -0.72091,0.34373 -0.95077,-0.5312 v -0.0209 q -0.22985,-0.76036 0.18807,-1.29158 0.33433,-0.4583 0.92986,-0.4583 z"
         style="font-size:21.3646px;line-height:1.25;font-family:Dyuthi;-inkscape-font-specification:'Dyuthi, Normal';letter-spacing:2.91427px;fill:none;stroke:#008671;stroke-width:2.64567;filter:url(#filter94123);stroke-opacity:1"
         id="path93945" />
      <path
         d="m 200.96442,179.87414 q 0,0 2.91666,0 0.53125,-0.0208 0.90625,0.36458 0.375,0.375 0.36458,0.90625 v 3.90624 q -0.0208,0.71875 -0.47916,1.29167 -0.45834,0.55208 -0.98959,0.65625 -0.53124,0.10416 -1.37499,0.23958 -0.84375,0.14583 -1.875,0.14583 -3.47916,0 -5.35416,-1.80208 -1.88541,-1.80208 -1.90625,-4.67707 0.0208,-3.20833 2.16667,-5.04166 2.14583,-1.82292 5.41666,-1.82292 0.76041,0 3.04166,0.1875 0.45833,0.0417 0.72916,0.41667 0.48959,0.76041 0.16667,1.67708 l -0.0208,0.0208 q -0.375,0.92708 -1.27083,0.85417 l -2.90625,-0.29167 q -2.35416,-0.22916 -3.29166,0.78125 -1.35417,1.42708 -1.15625,3.42708 0.15625,1.67708 1.44791,2.83333 1.30209,1.15625 3.11458,1.15625 h 0.52084 q 0.35416,0 0.67708,-0.32292 0.32291,-0.32292 0.32291,-0.66667 v -1.52083 q 0,-0.34375 -0.22916,-0.53125 -0.27084,-0.30208 -0.5,-0.1875 l -0.60417,0.30209 q -0.71875,0.34375 -0.94791,-0.53125 v -0.0208 q -0.22917,-0.76041 0.1875,-1.29166 0.33333,-0.45833 0.92708,-0.45833 z"
         style="font-size:21.3333px;line-height:1.25;font-family:Dyuthi;-inkscape-font-specification:'Dyuthi, Normal';letter-spacing:2.91px;fill:#ffffff;stroke:#ffffff;stroke-width:1.88976"
         id="path93964" />
      <path
         d="m 201.02442,179.7551 q 0,0 2.91666,0 0.53125,-0.0208 0.90625,0.36458 0.375,0.375 0.36458,0.90625 v 3.90625 q -0.0208,0.71875 -0.47916,1.29166 -0.45834,0.55208 -0.98959,0.65625 -0.53124,0.10417 -1.37499,0.23958 -0.84375,0.14584 -1.875,0.14584 -3.47916,0 -5.35416,-1.80208 -1.88541,-1.80208 -1.90625,-4.67708 0.0208,-3.20833 2.16667,-5.04166 2.14583,-1.82291 5.41666,-1.82291 0.76041,0 3.04166,0.1875 0.45833,0.0417 0.72916,0.41666 0.48959,0.76042 0.16667,1.67708 l -0.0208,0.0208 q -0.375,0.92708 -1.27083,0.85417 l -2.90625,-0.29167 q -2.35416,-0.22916 -3.29166,0.78125 -1.35417,1.42708 -1.15625,3.42708 0.15625,1.67708 1.44791,2.83333 1.30209,1.15625 3.11458,1.15625 h 0.52084 q 0.35416,0 0.67708,-0.32292 0.32291,-0.32292 0.32291,-0.66667 v -1.52082 q 0,-0.34375 -0.22916,-0.53125 -0.27084,-0.30208 -0.5,-0.1875 l -0.60417,0.30208 q -0.71875,0.34375 -0.94791,-0.53125 v -0.0208 q -0.22917,-0.76041 0.1875,-1.29166 0.33333,-0.45833 0.92708,-0.45833 z"
         style="font-size:21.3333px;line-height:1.25;font-family:Dyuthi;-inkscape-font-specification:'Dyuthi, Normal';letter-spacing:2.91px;fill:none;stroke:#00aa7d;stroke-width:0.377953"
         id="path91658" />
    </g>
  </g>
</svg>
