<?xml version="1.0" encoding="UTF-8" standalone="no"?>
<!-- Created with Inkscape (http://www.inkscape.org/) -->

<svg
   width="60.000004mm"
   height="60.253838mm"
   viewBox="0 0 60.000004 60.253837"
   version="1.1"
   id="svg10271"
   inkscape:version="1.1.1 (3bf5ae0, 2021-09-20)"
   sodipodi:docname="picture-gears3.svg"
   xmlns:inkscape="http://www.inkscape.org/namespaces/inkscape"
   xmlns:sodipodi="http://sodipodi.sourceforge.net/DTD/sodipodi-0.dtd"
   xmlns:xlink="http://www.w3.org/1999/xlink"
   xmlns="http://www.w3.org/2000/svg"
   xmlns:svg="http://www.w3.org/2000/svg">
  <sodipodi:namedview
     id="namedview10273"
     pagecolor="#ffffff"
     bordercolor="#494949"
     borderopacity="1"
     inkscape:pageshadow="0"
     inkscape:pageopacity="0"
     inkscape:pagecheckerboard="0"
     inkscape:document-units="mm"
     showgrid="false"
     fit-margin-top="0"
     fit-margin-left="0"
     fit-margin-right="0"
     fit-margin-bottom="0"
     inkscape:zoom="0.94786756"
     inkscape:cx="109.19247"
     inkscape:cy="108.13747"
     inkscape:window-width="1294"
     inkscape:window-height="704"
     inkscape:window-x="72"
     inkscape:window-y="27"
     inkscape:window-maximized="1"
     inkscape:current-layer="layer1" />
  <defs
     id="defs10268">
    <linearGradient
       inkscape:collect="always"
       id="linearGradient10905">
      <stop
         style="stop-color:#05576f;stop-opacity:1"
         offset="0"
         id="stop10901" />
      <stop
         style="stop-color:#003342;stop-opacity:0"
         offset="1"
         id="stop12873" />
      <stop
         style="stop-color:#003749;stop-opacity:0.10980392"
         offset="1"
         id="stop10903" />
    </linearGradient>
    <linearGradient
       inkscape:collect="always"
       xlink:href="#linearGradient10905"
       id="linearGradient11289"
       gradientUnits="userSpaceOnUse"
       x1="119.2449"
       y1="32.133492"
       x2="85.105835"
       y2="69.799873"
       spreadMethod="pad" />
  </defs>
  <g
     inkscape:label="Layer 1"
     inkscape:groupmode="layer"
     id="layer1"
     transform="translate(-72.669655,-21.247825)">
    <ellipse
       style="opacity:1;mix-blend-mode:multiply;fill:url(#linearGradient11289);fill-opacity:1;fill-rule:nonzero;stroke:#4d4d4d;stroke-width:0.0987118"
       id="path10432"
       cx="102.30815"
       cy="51.446308"
       rx="24.002632"
       ry="24.037928" />
    <path
       id="gear-1"
       style="fill:#7e7e7e;fill-opacity:1;stroke:#4d4d4d;stroke-width:0.0999132;stroke-miterlimit:4;stroke-dasharray:none;stroke-opacity:1"
       d="m 105.5304,21.303996 -0.73809,2.103633 -0.73864,2.087054 -1.72237,0.0492 -1.72239,0.0492 -0.738629,-2.070463 c -0.508561,-1.396873 -0.820245,-2.054414 -0.984289,-2.054414 -0.131247,0.0164 -0.902133,0.147951 -1.72239,0.295861 l -1.476717,0.27927 -0.04915,2.317094 -0.04912,2.333683 -1.49274,0.509331 c -0.967898,0.312241 -1.574973,0.443681 -1.689804,0.345071 -0.09843,-0.0822 -0.738395,-0.854392 -1.411012,-1.725383 -0.820258,-1.068202 -1.295864,-1.544632 -1.492741,-1.495332 -0.147652,0.0329 -0.853153,0.41053 -1.574996,0.837811 l -1.295655,0.772551 0.62327,1.922793 c 0.344505,1.051762 0.6563,2.021383 0.7055,2.152854 0.06563,0.16434 -0.295316,0.55886 -1.164787,1.232651 -0.689035,0.542311 -1.29628,0.969272 -1.361898,0.952842 -0.06562,-0.0164 -0.935065,-0.525771 -1.968592,-1.150262 l -1.85376,-1.101032 -0.902059,0.969422 c -1.574885,1.725553 -1.574811,1.462822 -0.04912,3.451305 0.738236,0.953162 1.328758,1.758323 1.328758,1.791193 0,0.0986 -1.460434,2.448474 -1.608086,2.596374 -0.08203,0.0822 -1.115097,-0.0653 -2.329097,-0.361131 -1.197584,-0.27937 -2.198536,-0.47653 -2.231357,-0.4601 -0.180449,0.21364 -1.214025,3.007164 -1.164812,3.171505 0.06563,0.1479 1.591364,1.232671 3.543575,2.514513 0.04923,0.0164 -0.08207,0.739062 -0.295341,1.577183 -0.426526,1.774853 -0.114609,1.594132 -3.165979,1.922803 l -1.738954,0.19742 -0.131383,1.577723 c -0.08202,0.870991 -0.147933,1.643372 -0.147933,1.741972 0,0.0822 0.918879,0.427131 2.050858,0.739371 1.131943,0.328681 2.149224,0.624811 2.280472,0.674111 0.164044,0.0493 0.246127,0.509441 0.295341,1.626943 l 0.08173,1.561142 -2.00118,0.887032 c -1.082729,0.49301 -2.018185,0.953451 -2.067398,1.019181 -0.06563,0.11504 0.705647,3.270085 0.836895,3.401545 0.03279,0.0329 1.066287,-0.0164 2.313084,-0.11502 1.246773,-0.0986 2.280644,-0.16394 2.297049,-0.13107 0.03281,0.0164 0.344418,0.673571 0.688936,1.429522 l 0.639821,1.396892 -1.722917,1.643533 -1.722391,1.642992 0.951726,1.446113 c 0.524954,0.788821 1.033258,1.430072 1.131709,1.430072 0.09843,0 1.099218,-0.411141 2.214781,-0.904162 l 2.050846,-0.903621 1.01689,1.101042 c 0.57418,0.624481 1.033564,1.166761 1.049969,1.216062 0,0.0493 -0.475949,0.985981 -1.066545,2.087043 -0.590583,1.117501 -1.066005,2.070683 -1.066005,2.152853 0,0.11504 1.968456,1.676443 2.591862,2.054413 0.147652,0.0822 0.738284,-0.36149 1.804633,-1.331082 0.869471,-0.805261 1.689802,-1.528582 1.804633,-1.594312 0.180448,-0.11504 2.542771,1.068301 2.723232,1.347672 0.03281,0.0657 -0.08216,1.068061 -0.246213,2.251293 -0.180449,1.183232 -0.295182,2.234854 -0.278777,2.366324 0.04921,0.18077 2.755844,1.331622 3.165979,1.331622 0.09843,0 0.590718,-0.838641 1.115684,-1.857533 1.394437,-2.695144 1.131844,-2.481144 2.88719,-2.168903 1.378045,0.26294 1.476414,0.31233 1.558454,0.706741 0.0492,0.2465 0.24642,1.314712 0.44327,2.382903 l 0.36103,1.922803 h 1.75495 1.73896 l 0.44328,-2.333683 c 0.22969,-1.265402 0.50826,-2.366394 0.60671,-2.432124 0.19686,-0.13148 2.78915,-0.542281 2.87118,-0.460111 0.0329,0.0329 0.55766,0.936612 1.14826,2.021243 0.60699,1.084632 1.16487,2.037514 1.23048,2.119684 0.13126,0.13147 2.60829,-0.574791 3.11687,-0.887032 0.16405,-0.0986 0.13133,-0.608511 -0.16397,-2.432663 -0.19684,-1.281832 -0.328,-2.415674 -0.27879,-2.547154 0.0821,-0.230071 2.2308,-1.429522 2.57531,-1.429522 0.0984,0 0.96795,0.706581 1.91946,1.561142 0.96789,0.854551 1.80486,1.561132 1.88687,1.561132 0.0656,0 0.72162,-0.45989 1.42704,-1.018641 l 1.31222,-1.019182 -0.39361,-0.657521 c -0.21327,-0.37798 -0.7546,-1.363562 -1.21395,-2.218123 l -0.80377,-1.561143 0.98428,-1.117621 c 0.5578,-0.608051 1.09913,-1.117622 1.21397,-1.117622 0.13122,0 1.19742,0.410761 2.3622,0.920211 1.18116,0.509441 2.18199,0.903852 2.2148,0.870982 0.19687,-0.197201 1.72237,-2.645574 1.72237,-2.760614 0,-0.0822 -0.77087,-0.887492 -1.72237,-1.807783 -0.95149,-0.903852 -1.72239,-1.709403 -1.72239,-1.775133 0,-0.0822 0.26219,-0.739381 0.6067,-1.495332 l 0.60724,-1.363732 1.39446,0.0985 c 0.77106,0.0493 1.90301,0.13152 2.49359,0.18082 l 1.09913,0.0984 0.36104,-1.577732 c 0.19686,-0.870992 0.32799,-1.676153 0.27877,-1.791193 -0.0492,-0.11503 -1.01728,-0.608021 -2.16565,-1.101032 -1.14836,-0.49301 -2.1163,-0.986231 -2.14911,-1.068401 -0.0328,-0.0986 0,-0.821312 0.0657,-1.642993 l 0.11483,-1.462702 1.23051,-0.361661 c 0.67261,-0.21364 1.75537,-0.52597 2.37876,-0.706741 l 1.16481,-0.34508 -0.18053,-1.626943 c -0.0821,-0.903861 -0.19697,-1.675932 -0.2462,-1.708802 -0.0492,-0.0493 -1.11555,-0.181201 -2.37875,-0.279801 -1.2632,-0.11504 -2.32925,-0.22982 -2.34566,-0.26269 -0.0328,-0.0164 -0.24603,-0.723171 -0.45929,-1.577723 -0.37733,-1.446172 -0.3777,-1.544762 -0.0988,-1.741972 0.14766,-0.11504 1.04989,-0.739771 1.96859,-1.364262 1.93582,-1.331132 1.87039,-1.117502 0.95172,-3.138855 l -0.59069,-1.248702 -2.16565,0.558541 c -1.19759,0.31224 -2.29667,0.559081 -2.4279,0.559081 -0.21327,0 -1.80462,-2.399694 -1.80462,-2.711935 0,-0.0822 0.62341,-0.969171 1.39446,-1.988073 0.77103,-1.035331 1.39445,-1.939613 1.39445,-2.021773 0,-0.27938 -2.32929,-2.317113 -2.52616,-2.202073 -0.0984,0.0493 -1.0006,0.641101 -2.01774,1.298452 l -1.83773,1.199472 -1.24653,-1.002062 c -0.67262,-0.542311 -1.23051,-1.068231 -1.23051,-1.166842 0,-0.0986 0.2951,-1.134251 0.67239,-2.301043 0.36092,-1.166802 0.64006,-2.136033 0.60725,-2.168903 -0.0328,-0.0164 -0.72161,-0.378291 -1.54187,-0.789132 l -1.49326,-0.755961 -1.21396,1.577723 c -0.67262,0.854561 -1.29566,1.659872 -1.41049,1.807782 -0.16404,0.213631 -0.39409,0.180721 -1.83774,-0.29586 l -1.65669,-0.542491 v -2.349733 c 0,-1.298272 -0.0492,-2.350274 -0.11483,-2.350274 -0.13123,0 -1.77203,-0.24654 -2.75635,-0.410881 z m -2.86265,7.039581 A 22.994076,23.034128 0 0 1 125.66174,51.377602 22.994076,23.034128 0 0 1 102.66775,74.411638 22.994076,23.034128 0 0 1 79.673241,51.377602 22.994076,23.034128 0 0 1 102.66775,28.343577 Z" />
  </g>
</svg>
