<?xml version="1.0" encoding="UTF-8" standalone="no"?>
<!-- Created with Inkscape (http://www.inkscape.org/) -->

<svg
   width="185.53987mm"
   height="150.77243mm"
   viewBox="0 0 185.5399 150.77244"
   version="1.1"
   id="svg5"
   inkscape:version="1.1.1 (3bf5ae0, 2021-09-20)"
   sodipodi:docname="picture-gears.svg"
   xmlns:inkscape="http://www.inkscape.org/namespaces/inkscape"
   xmlns:sodipodi="http://sodipodi.sourceforge.net/DTD/sodipodi-0.dtd"
   xmlns="http://www.w3.org/2000/svg"
   xmlns:svg="http://www.w3.org/2000/svg">
  <sodipodi:namedview
     id="namedview7"
     pagecolor="#ffffff"
     bordercolor="#696969"
     borderopacity="1"
     inkscape:pageshadow="0"
     inkscape:pageopacity="1"
     inkscape:pagecheckerboard="false"
     inkscape:document-units="mm"
     showgrid="false"
     inkscape:snap-global="false"
     inkscape:snap-bbox="false"
     fit-margin-top="0"
     fit-margin-left="0"
     fit-margin-right="0"
     fit-margin-bottom="0"
     inkscape:zoom="0.33512179"
     inkscape:cx="281.98703"
     inkscape:cy="401.34663"
     inkscape:window-width="1294"
     inkscape:window-height="704"
     inkscape:window-x="72"
     inkscape:window-y="27"
     inkscape:window-maximized="1"
     inkscape:current-layer="g1207" />
  <defs
     id="defs2" />
  <g
     inkscape:label="Layer 1"
     inkscape:groupmode="layer"
     id="layer1"
     transform="translate(61.342582,31.21633)">
    <g
       transform="matrix(0.01228174,0,0,-0.01228174,-174.7279,118.62933)"
       fill="#000000"
       stroke="none"
       id="g1207">
      <path
         id="gear-6"
         style="fill:#7e7e7e;fill-opacity:1;stroke:#4d4d4d;stroke-width:8.14217;stroke-miterlimit:4;stroke-dasharray:none;stroke-opacity:1"
         d="m 16359.04,12196.11 -60.201,-171.281 -60.246,-169.931 -140.482,-4.007 -140.484,-4.008 -60.245,168.58 c -41.48,113.736 -66.902,167.274 -80.282,167.274 -10.705,-1.338 -73.581,-12.047 -140.484,-24.089 l -120.446,-22.739 -4.008,-188.662 -4.007,-190.012 -121.753,-41.47 c -78.945,-25.423 -128.46,-36.125 -137.826,-28.097 -8.028,6.691 -60.226,69.566 -115.087,140.484 -66.903,86.974 -105.695,125.766 -121.753,121.752 -12.043,-2.676 -69.586,-33.426 -128.462,-68.216 l -105.678,-62.902 50.836,-156.557 c 28.099,-85.636 53.53,-164.585 57.543,-175.289 5.353,-13.381 -24.087,-45.503 -95.004,-100.364 -56.2,-44.156 -105.729,-78.92 -111.081,-77.582 -5.352,1.338 -76.267,42.809 -160.565,93.656 l -151.199,89.648 -73.575,-78.932 c -128.453,-140.497 -128.447,-119.105 -4.007,-281.011 60.213,-77.608 108.378,-143.165 108.378,-145.842 0,-8.028 -119.118,-199.358 -131.161,-211.4 -6.69,-6.69 -90.951,5.318 -189.969,29.403 -97.679,22.748 -179.32,38.801 -181.997,37.463 -14.718,-17.395 -99.02,-244.848 -95.006,-258.229 5.353,-12.042 129.797,-100.367 289.026,-204.736 4.015,-1.338 -6.694,-60.176 -24.089,-128.416 -34.789,-144.511 -9.348,-129.796 -258.228,-156.557 l -141.835,-16.074 -10.716,-128.4615 c -6.69,-70.917 -12.066,-133.806 -12.066,-141.834 0,-6.69 74.947,-34.778 167.275,-60.201 92.325,-26.761 175.298,-50.8727 186.003,-54.8868 13.38,-4.014 20.075,-41.4801 24.089,-132.4683 l 6.666,-127.1106 -163.223,-72.2237 c -88.311,-40.1421 -164.61,-77.6312 -168.624,-82.9834 -5.353,-9.3665 57.555,-266.2551 68.26,-276.9595 2.675,-2.6762 86.97,1.3371 188.663,9.3656 101.691,8.0282 186.017,13.3484 187.355,10.6722 2.676,-1.338 28.092,-54.8434 56.192,-116.3944 l 52.186,-113.7373 -140.527,-133.8189 -140.484,-133.7751 77.626,-117.7448 c 42.817,-64.227 84.276,-116.438 92.306,-116.438 8.028,0 89.656,33.4757 180.645,73.6177 l 167.274,73.5743 82.941,-89.6481 c 46.832,-50.8465 84.301,-94.9995 85.639,-99.0139 0,-4.0141 -38.82,-80.2803 -86.991,-169.9307 -48.17,-90.9885 -86.947,-168.5983 -86.947,-175.2886 0,-9.3666 160.554,-136.498 211.401,-167.2734 12.043,-6.6903 60.217,29.4334 147.192,108.3791 70.917,65.5652 137.826,124.4591 147.192,129.8112 14.718,9.3666 207.397,-86.9824 222.116,-109.7297 2.676,-5.3523 -6.701,-86.9632 -20.082,-183.3038 -14.718,-96.3406 -24.076,-181.9648 -22.738,-192.6694 4.014,-14.7187 224.776,-108.4229 258.228,-108.4229 8.028,0 48.181,68.2833 90.999,151.2431 113.735,219.4427 92.317,202.0187 235.489,176.5955 112.398,-21.409 120.421,-25.4302 127.112,-57.5438 4.015,-20.0708 20.099,-107.0457 36.155,-194.0199 l 29.447,-156.5575 h 143.14 141.835 l 36.155,190.0122 c 18.734,103.0311 41.456,192.6752 49.486,198.0275 16.056,10.7046 227.492,44.1526 234.183,37.4624 2.676,-2.6762 45.485,-76.2605 93.656,-164.5728 49.508,-88.3122 95.01,-165.8974 100.362,-172.5879 10.706,-10.7046 212.741,46.8007 254.222,72.2238 13.381,8.0284 10.712,49.5459 -13.373,198.071 -16.056,104.3691 -26.753,196.6884 -22.74,207.393 6.692,18.7328 181.952,116.3945 210.051,116.3945 8.029,0 78.95,-57.5312 156.558,-127.1105 78.945,-69.5793 147.21,-127.1104 153.9,-127.1104 5.352,0 58.857,37.4456 116.394,82.9398 l 107.029,82.9835 -32.104,53.5361 c -17.395,30.7754 -61.548,111.0237 -99.014,180.603 l -65.558,127.1105 80.281,90.9986 c 45.496,49.5082 89.648,90.9985 99.015,90.9985 10.703,0 97.666,-33.4446 192.669,-74.9247 96.34,-41.48 177.971,-73.593 180.647,-70.917 16.057,16.0568 140.483,215.4073 140.483,224.7738 0,6.6902 -62.876,72.2604 -140.483,147.192 -77.607,73.5936 -140.484,139.1825 -140.484,144.5348 0,6.6902 21.385,60.2014 49.485,121.7523 l 49.528,111.0366 113.737,-8.0154 c 62.89,-4.014 155.216,-10.7093 203.386,-14.7233 l 89.648,-8.0153 29.448,128.4609 c 16.056,70.9175 26.752,136.4752 22.738,145.8416 -4.015,9.3663 -82.973,49.5062 -176.638,89.648 -93.664,40.1418 -172.613,80.3006 -175.289,86.9909 -2.676,8.0286 0,66.8722 5.357,133.7753 l 9.366,119.0953 100.364,29.4472 c 54.861,17.395 143.175,42.825 194.02,57.544 l 95.006,28.097 -14.724,132.468 c -6.69,73.5935 -16.066,136.4575 -20.081,139.1335 -4.014,4.014 -90.988,14.754 -194.019,22.782 -103.031,9.367 -189.982,18.712 -191.32,21.389 -2.676,1.338 -20.067,58.881 -37.461,128.461 -30.777,117.748 -30.807,125.776 -8.06,141.832 12.044,9.367 85.633,60.234 160.565,111.081 157.892,108.383 152.556,90.989 77.626,255.571 l -48.179,101.671 -176.638,-45.478 c -97.679,-25.423 -187.324,-45.521 -198.028,-45.521 -17.395,0 -147.191,195.387 -147.191,220.81 0,6.69 50.848,78.912 113.737,161.872 62.888,84.298 113.737,157.926 113.737,164.616 0,22.747 -189.986,188.663 -206.043,179.297 -8.029,-4.015 -81.612,-52.2 -164.573,-105.723 l -149.892,-97.663 -101.671,81.589 c -54.861,44.156 -100.365,86.978 -100.365,95.006 0,8.029 24.069,92.353 54.843,187.356 29.438,95.002 52.205,173.919 49.529,176.595 -2.676,1.338 -58.857,30.801 -125.76,64.252 l -121.795,61.552 -99.015,-128.461 c -54.861,-69.579 -105.678,-135.149 -115.044,-147.192 -13.38,-17.395 -32.144,-14.715 -149.893,24.089 l -135.125,44.171 v 191.319 c 0,105.707 -4.013,191.362 -9.366,191.362 -10.703,0 -144.533,20.074 -224.817,33.455 z m -233.487,-573.173 a 1875.4747,1875.4747 0 0 0 1875.468,-1875.4665 1875.4747,1875.4747 0 0 0 -1875.468,-1875.4669 1875.4747,1875.4747 0 0 0 -1875.51,1875.4669 1875.4747,1875.4747 0 0 0 1875.51,1875.4665 z" />
      <path
         id="gear-3"
         style="fill:#7e7e7e;fill-opacity:1;stroke:#4d4d4d;stroke-width:8.14217;stroke-miterlimit:4;stroke-dasharray:none;stroke-opacity:1"
         d="m 15631.792,7653.2403 -60.201,-171.281 -60.246,-169.931 -140.482,-4.007 -140.484,-4.008 -60.245,168.58 c -41.48,113.736 -66.902,167.274 -80.282,167.274 -10.705,-1.338 -73.581,-12.047 -140.484,-24.089 l -120.446,-22.739 -4.008,-188.662 -4.007,-190.012 -121.753,-41.47 c -78.945,-25.423 -128.46,-36.125 -137.826,-28.097 -8.028,6.691 -60.226,69.566 -115.087,140.484 -66.903,86.974 -105.695,125.766 -121.753,121.752 -12.043,-2.676 -69.586,-33.426 -128.462,-68.216 l -105.678,-62.902 50.836,-156.557 c 28.099,-85.636 53.53,-164.585 57.543,-175.289 5.353,-13.381 -24.087,-45.503 -95.004,-100.364 -56.2,-44.156 -105.729,-78.92 -111.081,-77.582 -5.352,1.338 -76.267,42.809 -160.565,93.656 l -151.199,89.648 -73.575,-78.932 c -128.453,-140.497 -128.447,-119.105 -4.007,-281.011 60.213,-77.608 108.378,-143.165 108.378,-145.842 0,-8.028 -119.118,-199.358 -131.161,-211.4 -6.69,-6.69 -90.951,5.318 -189.969,29.403 -97.679,22.748 -179.32,38.801 -181.997,37.463 -14.718,-17.395 -99.02,-244.848 -95.006,-258.229 5.353,-12.042 129.797,-100.367 289.026,-204.736 4.015,-1.338 -6.694,-60.176 -24.089,-128.4165 -34.789,-144.511 -9.348,-129.796 -258.228,-156.557 l -141.835,-16.074 -10.716,-128.461 c -6.69,-70.917 -12.066,-133.806 -12.066,-141.834 0,-6.69 74.947,-34.778 167.275,-60.201 92.325,-26.761 175.298,-50.8727 186.003,-54.8868 13.38,-4.014 20.075,-41.4801 24.089,-132.4683 l 6.666,-127.1106 -163.223,-72.2237 c -88.311,-40.1421 -164.61,-77.6312 -168.624,-82.9834 -5.353,-9.3665 57.555,-266.2551 68.26,-276.9595 2.675,-2.6762 86.97,1.3371 188.663,9.3656 101.691,8.0282 186.017,13.3484 187.355,10.6722 2.676,-1.338 28.092,-54.8434 56.192,-116.3944 l 52.186,-113.7373 -140.527,-133.8189 -140.484,-133.7751 77.626,-117.7448 c 42.817,-64.227 84.276,-116.438 92.306,-116.438 8.028,0 89.656,33.4757 180.645,73.6177 l 167.274,73.5743 82.941,-89.6481 c 46.832,-50.8465 84.301,-94.9995 85.639,-99.0139 0,-4.0141 -38.82,-80.2803 -86.991,-169.9307 -48.17,-90.9885 -86.947,-168.5983 -86.947,-175.2886 0,-9.3666 160.554,-136.498 211.401,-167.2734 12.043,-6.6903 60.217,29.4334 147.192,108.3791 70.917,65.5652 137.826,124.4591 147.192,129.8112 14.718,9.3666 207.397,-86.9824 222.116,-109.7297 2.676,-5.3523 -6.701,-86.9632 -20.082,-183.3038 -14.718,-96.3406 -24.076,-181.9648 -22.738,-192.6694 4.014,-14.7187 224.776,-108.4229 258.228,-108.4229 8.028,0 48.181,68.2833 90.999,151.2431 113.735,219.4427 92.317,202.0187 235.489,176.5955 112.398,-21.409 120.421,-25.4302 127.112,-57.5438 4.015,-20.0708 20.099,-107.0457 36.155,-194.0199 l 29.447,-156.5575 h 143.14 141.835 l 36.155,190.0122 c 18.734,103.0311 41.456,192.6752 49.486,198.0275 16.056,10.7046 227.492,44.1526 234.183,37.4624 2.676,-2.6762 45.485,-76.2605 93.656,-164.5728 49.508,-88.3122 95.01,-165.8974 100.362,-172.5879 10.706,-10.7046 212.741,46.8007 254.222,72.2238 13.381,8.0284 10.712,49.5459 -13.373,198.071 -16.056,104.3691 -26.753,196.6884 -22.74,207.393 6.692,18.7328 181.952,116.3945 210.051,116.3945 8.029,0 78.95,-57.5312 156.558,-127.1105 78.945,-69.5793 147.21,-127.1104 153.9,-127.1104 5.352,0 58.857,37.4456 116.394,82.9398 l 107.029,82.9835 -32.104,53.5361 c -17.395,30.7754 -61.548,111.0237 -99.014,180.603 l -65.558,127.1105 80.281,90.9986 c 45.496,49.5082 89.648,90.9985 99.015,90.9985 10.703,0 97.666,-33.4446 192.669,-74.9247 96.34,-41.48 177.971,-73.593 180.647,-70.917 16.057,16.0568 140.483,215.4073 140.483,224.7738 0,6.6902 -62.876,72.2604 -140.483,147.192 -77.607,73.5936 -140.484,139.1825 -140.484,144.5348 0,6.6902 21.385,60.2014 49.485,121.7523 l 49.528,111.0366 113.737,-8.0154 c 62.89,-4.014 155.216,-10.7093 203.386,-14.7233 l 89.648,-8.0153 29.448,128.4609 c 16.056,70.9175 26.752,136.4752 22.738,145.8416 -4.015,9.3663 -82.973,49.5062 -176.638,89.648 -93.664,40.1418 -172.613,80.3006 -175.289,86.9909 -2.676,8.0286 0,66.8722 5.357,133.7753 l 9.366,119.0953 100.364,29.4472 c 54.861,17.395 143.175,42.825 194.02,57.544 l 95.006,28.097 -14.724,132.468 c -6.69,73.593 -16.066,136.457 -20.081,139.133 -4.014,4.014 -90.988,14.754 -194.019,22.782 -103.031,9.367 -189.982,18.712 -191.32,21.389 -2.676,1.338 -20.067,58.881 -37.461,128.461 -30.777,117.7485 -30.807,125.7765 -8.06,141.8325 12.044,9.367 85.633,60.234 160.565,111.081 157.892,108.383 152.556,90.989 77.626,255.571 l -48.179,101.671 -176.638,-45.478 c -97.679,-25.423 -187.324,-45.521 -198.028,-45.521 -17.395,0 -147.191,195.387 -147.191,220.81 0,6.69 50.848,78.912 113.737,161.872 62.888,84.298 113.737,157.926 113.737,164.616 0,22.747 -189.986,188.663 -206.043,179.297 -8.029,-4.015 -81.612,-52.2 -164.573,-105.723 l -149.892,-97.663 -101.671,81.589 c -54.861,44.156 -100.365,86.978 -100.365,95.006 0,8.029 24.069,92.353 54.843,187.356 29.438,95.002 52.205,173.919 49.529,176.595 -2.676,1.338 -58.857,30.801 -125.76,64.252 l -121.795,61.552 -99.015,-128.461 c -54.861,-69.579 -105.678,-135.149 -115.044,-147.192 -13.38,-17.395 -32.144,-14.715 -149.893,24.089 l -135.125,44.171 v 191.319 c 0,105.707 -4.013,191.362 -9.366,191.362 -10.703,0 -144.533,20.074 -224.817,33.455 z m -233.487,-573.173 a 1875.4747,1875.4747 0 0 0 1875.468,-1875.4665 1875.4747,1875.4747 0 0 0 -1875.468,-1875.4669 1875.4747,1875.4747 0 0 0 -1875.51,1875.4669 1875.4747,1875.4747 0 0 0 1875.51,1875.4665 z" />
      <path
         d="m 16760.523,8180.5195 -71.916,-13.396 -2.115,-99.413 -2.115,-99.413 -64.865,-23.2668 -64.865,-22.5619 -61.341,76.8512 -61.339,77.5562 -25.383,-14.8061 c -14.101,-8.4607 -43.008,-24.677 -64.159,-36.663 -21.152,-11.986 -39.484,-22.5618 -40.894,-23.2668 -1.409,-0.7052 10.576,-41.5984 26.087,-90.9524 16.216,-49.3539 28.907,-93.7725 28.203,-98.0028 0,-4.2303 -23.267,-26.0871 -52.174,-47.9439 l -51.47,-40.1882 -78.966,49.3539 c -43.009,26.7922 -81.082,49.3541 -83.902,50.7641 -3.525,0.7051 -28.202,-23.9719 -55.699,-54.2893 l -49.354,-55.6995 58.52,-78.9664 58.519,-78.9663 -38.073,-57.8146 c -32.433,-48.6489 -40.893,-56.4046 -54.289,-53.5843 -8.461,2.1151 -50.06,11.2809 -92.363,21.1517 -42.304,9.8708 -77.556,16.9213 -78.966,15.5112 -3.526,-2.8202 -59.225,-133.2557 -59.225,-136.781 0,-1.41 36.663,-26.7921 81.787,-55.6995 45.828,-30.3174 80.376,-57.1095 78.262,-62.0449 -2.117,-4.2303 -8.462,-33.1376 -15.512,-64.1602 -7.051,-31.0225 -13.396,-57.1096 -14.101,-58.5197 -1.411,-2.1151 -169.214,-22.5618 -184.725,-22.5618 -9.871,0 -14.806,-25.382 -18.332,-100.1181 l -2.82,-53.5842 43.008,-11.986 c 23.972,-6.3455 65.571,-17.6264 93.773,-26.087 57.109,-16.2164 53.585,-11.986 62.045,-98.708 l 4.23,-47.2388 -86.721,-43.7135 c -47.944,-23.9719 -88.133,-44.4186 -89.543,-45.8287 -3.525,-3.5253 28.202,-139.6012 33.842,-144.5366 2.116,-2.1152 47.24,0 99.414,4.2303 52.174,4.9354 97.298,7.7557 99.413,6.3455 2.115,-1.4101 15.511,-28.9073 30.317,-61.3399 l 26.088,-59.2247 -40.894,-38.0731 c -21.857,-21.1517 -56.404,-52.8793 -75.441,-70.5057 l -34.548,-32.4326 41.599,-60.6348 c 22.562,-33.8427 45.123,-61.34 50.059,-61.34 4.935,0 45.828,16.2163 91.657,35.2528 45.828,19.7417 86.017,35.2529 90.247,35.2529 3.525,0 26.792,-21.8568 50.059,-47.9438 l 43.009,-47.9439 -49.354,-90.2472 c -26.792,-50.0591 -45.829,-92.3625 -42.303,-95.1827 3.525,-2.1152 31.022,-22.5618 61.339,-45.1236 l 54.995,-41.5984 22.561,20.4466 c 11.987,10.576 44.419,40.8934 71.916,66.9805 28.203,26.7921 54.995,47.9438 59.93,47.9438 5.641,0 33.138,-12.691 61.34,-28.2022 58.52,-33.1377 55.7,-22.5619 37.368,-148.0619 -7.755,-48.649 -11.281,-90.2472 -8.461,-92.3624 2.115,-2.8203 31.023,-13.3962 64.16,-23.9719 33.138,-10.5759 63.456,-21.1517 67.686,-22.5619 4.935,-1.4101 28.907,37.368 55.7,87.4271 25.381,49.3539 47.943,90.9522 49.353,92.3623 1.411,1.4102 31.023,-1.4101 66.275,-5.6404 l 63.456,-9.1657 7.755,-35.9579 c 3.526,-19.7416 12.691,-66.2754 19.742,-102.9383 l 11.986,-66.9804 75.441,-2.1152 c 66.981,-1.4101 75.441,-0.705 78.966,10.5759 2.115,7.0506 10.576,52.1742 18.332,100.1181 8.461,48.6489 16.216,90.2472 18.331,93.0674 1.41,2.8203 26.087,8.4607 54.29,13.3961 27.497,4.2303 55.699,9.8708 62.044,11.2809 9.166,2.8202 23.973,-19.7416 63.456,-92.3625 28.202,-52.1741 53.584,-95.1826 55.699,-95.1826 2.115,0 33.843,10.5759 70.506,23.972 54.289,19.0365 66.98,26.7922 65.57,37.368 -1.41,7.0506 -8.461,54.9944 -16.216,107.1685 -7.756,51.4692 -13.396,95.1828 -12.691,95.8878 1.41,0.7051 27.497,14.8062 57.815,31.0225 64.865,34.5477 47.943,40.8932 151.586,-53.5843 35.253,-32.4326 66.981,-58.5197 70.507,-58.5197 7.05,0 108.578,83.1966 112.103,91.6573 0.705,2.8203 -9.166,24.6771 -22.561,47.9439 -13.396,23.9719 -36.664,66.2753 -50.765,93.7725 l -26.087,49.354 47.239,47.9438 47.944,47.9439 99.413,-40.8933 99.413,-40.1882 37.368,55.6994 c 20.447,30.3175 37.367,57.8147 37.367,61.34 0,3.5252 -33.137,39.4832 -74.03,79.6713 -83.197,81.7866 -80.376,72.6209 -45.829,150.1771 l 21.857,48.649 75.441,-4.9355 c 41.598,-2.8202 90.247,-6.3455 107.874,-9.1657 l 32.432,-3.5253 15.511,62.0449 c 8.461,34.5479 16.922,67.6855 18.332,74.031 2.82,7.7557 -19.036,20.4467 -89.543,51.4692 -51.469,22.5618 -96.592,43.7135 -100.118,46.5337 -3.525,3.5253 -2.114,34.5478 2.821,73.3259 l 9.165,67.6854 28.908,7.7557 c 15.512,4.9353 60.635,16.9213 99.413,27.4972 l 70.505,19.0365 -2.114,69.8006 c -1.41,38.7781 -4.935,71.9157 -7.051,74.736 -2.82,2.1152 -50.764,8.4607 -107.168,14.1011 l -102.234,9.1657 -16.216,63.4552 c -8.461,35.2527 -14.102,66.9803 -12.691,71.9157 2.115,4.2304 37.368,31.7276 79.671,59.9298 41.599,28.2023 78.967,53.5844 82.492,56.4046 5.64,3.5253 -38.073,117.7444 -51.469,133.9607 -2.116,2.8203 -50.059,-6.3454 -105.759,-19.7415 -55.699,-13.3961 -102.233,-23.2669 -102.938,-22.5619 -15.511,21.1517 -74.031,112.1041 -74.031,115.6293 0,2.1152 26.792,40.1883 59.93,83.1968 33.138,43.7134 59.929,81.7865 59.929,85.3118 0,3.5252 -22.561,29.6123 -50.058,57.1095 l -50.06,50.7642 -78.966,-50.7642 c -43.008,-28.2022 -81.786,-52.8792 -86.722,-55.6995 -5.64,-3.5252 -74.736,43.0085 -114.219,76.8512 -1.41,1.4101 10.576,45.8287 26.792,98.0029 16.922,52.1742 28.202,98.0029 25.383,102.2332 -4.936,7.7556 -112.105,63.4551 -122.68,63.4551 -3.526,0 -32.433,-34.5477 -64.866,-77.5562 -66.981,-87.427 -53.584,-83.1967 -147.357,-48.649 l -52.879,19.0366 -2.115,99.413 -2.116,98.7079 -22.561,3.5253 c -64.16,10.5758 -114.924,16.2163 -118.449,14.1011 -2.82,-1.4101 -18.332,-42.3034 -35.253,-90.9523 l -31.023,-88.1321 -74.031,1.4102 -74.03,2.1151 -31.728,86.0169 c -17.627,47.2388 -33.843,87.4271 -35.253,88.8372 -2.115,1.4101 -35.958,-4.2304 -75.441,-11.281 z m 365.924,-551.3542 c 302.469,-62.7501 523.858,-280.6125 588.018,-576.7363 14.805,-69.0956 14.805,-210.812 -0.705,-283.4328 -51.47,-244.6546 -212.222,-444.8907 -432.905,-540.0734 -104.349,-44.4185 -172.739,-58.5196 -289.778,-58.5196 -117.04,0 -185.431,14.1011 -289.779,58.5196 -334.197,143.8316 -511.87,519.6268 -414.573,875.6804 21.857,81.0815 83.197,198.8259 138.191,267.2164 107.874,132.5506 277.087,232.6687 442.071,260.1659 61.339,10.5759 203.761,8.4607 259.46,-2.8202 z"
         id="gear-5"
         style="fill:#7e7e7e;fill-opacity:1;stroke:#4d4d4d;stroke-width:8.14217;stroke-miterlimit:4;stroke-dasharray:none;stroke-opacity:1" />
      <path
         d="m 18980.141,7212.8583 -71.916,-13.396 -2.115,-99.413 -2.115,-99.413 -64.865,-23.2668 -64.865,-22.5619 -61.341,76.8512 -61.339,77.5562 -25.383,-14.8061 c -14.101,-8.4607 -43.008,-24.677 -64.159,-36.663 -21.152,-11.986 -39.484,-22.5618 -40.894,-23.2668 -1.409,-0.7052 10.576,-41.5984 26.087,-90.9524 16.216,-49.3539 28.907,-93.7725 28.203,-98.0028 0,-4.2303 -23.267,-26.0871 -52.174,-47.9439 l -51.47,-40.1882 -78.966,49.3539 c -43.009,26.7922 -81.082,49.3541 -83.902,50.7641 -3.525,0.7051 -28.202,-23.9719 -55.699,-54.2893 l -49.354,-55.6995 58.52,-78.9664 58.519,-78.9663 -38.073,-57.8146 c -32.433,-48.6489 -40.893,-56.4046 -54.289,-53.5843 -8.461,2.1151 -50.06,11.2809 -92.363,21.1517 -42.304,9.8708 -77.556,16.9213 -78.966,15.5112 -3.526,-2.8202 -59.225,-133.2557 -59.225,-136.781 0,-1.41 36.663,-26.7921 81.787,-55.6995 45.828,-30.3174 80.376,-57.1095 78.262,-62.0449 -2.117,-4.2303 -8.462,-33.1376 -15.512,-64.1602 -7.051,-31.0225 -13.396,-57.1096 -14.101,-58.5197 -1.411,-2.1151 -169.214,-22.5618 -184.725,-22.5618 -9.871,0 -14.806,-25.382 -18.332,-100.1181 l -2.82,-53.5842 43.008,-11.986 c 23.972,-6.3455 65.571,-17.6264 93.773,-26.087 57.109,-16.2164 53.585,-11.986 62.045,-98.708 l 4.23,-47.2388 -86.721,-43.7135 c -47.944,-23.9719 -88.133,-44.4186 -89.543,-45.8287 -3.525,-3.5253 28.202,-139.6012 33.842,-144.5366 2.116,-2.1152 47.24,0 99.414,4.2303 52.174,4.9354 97.298,7.7557 99.413,6.3455 2.115,-1.4101 15.511,-28.9073 30.317,-61.3399 l 26.088,-59.2247 -40.894,-38.0731 c -21.857,-21.1517 -56.404,-52.8793 -75.441,-70.5057 l -34.548,-32.4326 41.599,-60.6348 c 22.562,-33.8427 45.123,-61.34 50.059,-61.34 4.935,0 45.828,16.2163 91.657,35.2528 45.828,19.7417 86.017,35.2529 90.247,35.2529 3.525,0 26.792,-21.8568 50.059,-47.9438 l 43.009,-47.9439 -49.354,-90.2472 c -26.792,-50.0591 -45.829,-92.3625 -42.303,-95.1827 3.525,-2.1152 31.022,-22.5618 61.339,-45.1236 l 54.995,-41.5984 22.561,20.4466 c 11.987,10.576 44.419,40.8934 71.916,66.9805 28.203,26.7921 54.995,47.9438 59.93,47.9438 5.641,0 33.138,-12.691 61.34,-28.2022 58.52,-33.1377 55.7,-22.5619 37.368,-148.0619 -7.755,-48.649 -11.281,-90.2472 -8.461,-92.3624 2.115,-2.8203 31.023,-13.3962 64.16,-23.9719 33.138,-10.5759 63.456,-21.1517 67.686,-22.5619 4.935,-1.4101 28.907,37.368 55.7,87.4271 25.381,49.3539 47.943,90.9522 49.353,92.3623 1.411,1.4102 31.023,-1.4101 66.275,-5.6404 l 63.456,-9.1657 7.755,-35.9579 c 3.526,-19.7416 12.691,-66.2754 19.742,-102.9383 l 11.986,-66.9804 75.441,-2.1152 c 66.981,-1.4101 75.441,-0.705 78.966,10.5759 2.115,7.0506 10.576,52.1742 18.332,100.1181 8.461,48.6489 16.216,90.2472 18.331,93.0674 1.41,2.8203 26.087,8.4607 54.29,13.3961 27.497,4.2303 55.699,9.8708 62.044,11.2809 9.166,2.8202 23.973,-19.7416 63.456,-92.3625 28.202,-52.1741 53.584,-95.1826 55.699,-95.1826 2.115,0 33.843,10.5759 70.506,23.972 54.289,19.0365 66.98,26.7922 65.57,37.368 -1.41,7.0506 -8.461,54.9944 -16.216,107.1685 -7.756,51.4692 -13.396,95.1828 -12.691,95.8878 1.41,0.7051 27.497,14.8062 57.815,31.0225 64.865,34.5477 47.943,40.8932 151.586,-53.5843 35.253,-32.4326 66.981,-58.5197 70.507,-58.5197 7.05,0 108.578,83.1966 112.103,91.6573 0.705,2.8203 -9.166,24.6771 -22.561,47.9439 -13.396,23.9719 -36.664,66.2753 -50.765,93.7725 l -26.087,49.354 47.239,47.9438 47.944,47.9439 99.413,-40.8933 99.413,-40.1882 37.368,55.6994 c 20.447,30.3175 37.367,57.8147 37.367,61.34 0,3.5252 -33.137,39.4832 -74.03,79.6713 -83.197,81.7866 -80.376,72.6209 -45.829,150.1771 l 21.857,48.649 75.441,-4.9355 c 41.598,-2.8202 90.247,-6.3455 107.874,-9.1657 l 32.432,-3.5253 15.511,62.0449 c 8.461,34.5479 16.922,67.6855 18.332,74.031 2.82,7.7557 -19.036,20.4467 -89.543,51.4692 -51.469,22.5618 -96.592,43.7135 -100.118,46.5337 -3.525,3.5253 -2.114,34.5478 2.821,73.3259 l 9.165,67.6854 28.908,7.7557 c 15.512,4.9353 60.635,16.9213 99.413,27.4972 l 70.505,19.0365 -2.114,69.8006 c -1.41,38.7781 -4.935,71.9157 -7.051,74.736 -2.82,2.1152 -50.764,8.4607 -107.168,14.1011 l -102.234,9.1657 -16.216,63.4552 c -8.461,35.2527 -14.102,66.9803 -12.691,71.9157 2.115,4.2304 37.368,31.7276 79.671,59.9298 41.599,28.2023 78.967,53.5844 82.492,56.4046 5.64,3.5253 -38.073,117.7444 -51.469,133.9607 -2.116,2.8203 -50.059,-6.3454 -105.759,-19.7415 -55.699,-13.3961 -102.233,-23.2669 -102.938,-22.5619 -15.511,21.1517 -74.031,112.1041 -74.031,115.6293 0,2.1152 26.792,40.1883 59.93,83.1968 33.138,43.7134 59.929,81.7865 59.929,85.3118 0,3.5252 -22.561,29.6123 -50.058,57.1095 l -50.06,50.7642 -78.966,-50.7642 c -43.008,-28.2022 -81.786,-52.8792 -86.722,-55.6995 -5.64,-3.5252 -74.736,43.0085 -114.219,76.8512 -1.41,1.4101 10.576,45.8287 26.792,98.0029 16.922,52.1742 28.202,98.0029 25.383,102.2332 -4.936,7.7556 -112.105,63.4551 -122.68,63.4551 -3.526,0 -32.433,-34.5477 -64.866,-77.5562 -66.981,-87.427 -53.584,-83.1967 -147.357,-48.649 l -52.879,19.0366 -2.115,99.413 -2.116,98.7079 -22.561,3.5253 c -64.16,10.5758 -114.924,16.2163 -118.449,14.1011 -2.82,-1.4101 -18.332,-42.3034 -35.253,-90.9523 l -31.023,-88.1321 -74.031,1.4102 -74.03,2.1151 -31.728,86.0169 c -17.627,47.2388 -33.843,87.4271 -35.253,88.8372 -2.115,1.4101 -35.958,-4.2304 -75.441,-11.281 z m 365.924,-551.3542 c 302.469,-62.7501 523.858,-280.6125 588.018,-576.7363 14.805,-69.0956 14.805,-210.812 -0.705,-283.4328 -51.47,-244.6546 -212.222,-444.8907 -432.905,-540.0734 -104.349,-44.4185 -172.739,-58.5196 -289.778,-58.5196 -117.04,0 -185.431,14.1011 -289.779,58.5196 -334.197,143.8316 -511.87,519.6268 -414.573,875.6804 21.857,81.0815 83.197,198.8259 138.191,267.2164 107.874,132.5506 277.087,232.6687 442.071,260.1659 61.339,10.5759 203.761,8.4607 259.46,-2.8202 z"
         id="gear-4"
         style="fill:#7e7e7e;fill-opacity:1;stroke:#4d4d4d;stroke-width:8.14217;stroke-miterlimit:4;stroke-dasharray:none;stroke-opacity:1" />
      <path
         id="gear-1"
         style="fill:#7e7e7e;fill-opacity:1;stroke:#4d4d4d;stroke-width:8.14217;stroke-miterlimit:4;stroke-dasharray:none;stroke-opacity:1"
         d="m 18748.683,4825.9356 -60.201,-171.2812 -60.246,-169.9306 -140.482,-4.0075 -140.484,-4.0076 -60.245,168.5801 c -41.48,113.7356 -66.902,167.2736 -80.282,167.2736 -10.705,-1.3379 -73.581,-12.0465 -140.484,-24.0891 l -120.446,-22.7387 -4.008,-188.6618 -4.007,-190.0122 -121.753,-41.47 c -78.945,-25.4231 -128.46,-36.1251 -137.826,-28.0966 -8.028,6.6903 -60.226,69.5661 -115.087,140.4833 -66.903,86.9745 -105.695,125.7669 -121.753,121.7527 -12.043,-2.6762 -69.586,-33.4267 -128.462,-68.2164 l -105.678,-62.9018 50.836,-156.5574 c 28.099,-85.6361 53.53,-164.5842 57.543,-175.2886 5.353,-13.3807 -24.087,-45.5035 -95.004,-100.364 -56.2,-44.1562 -105.729,-78.9201 -111.081,-77.5819 -5.352,1.3379 -76.267,42.8093 -160.565,93.6556 l -151.199,89.6481 -73.575,-78.9321 c -128.453,-140.4968 -128.447,-119.1049 -4.007,-281.0108 60.213,-77.6077 108.378,-143.1653 108.378,-145.8415 0,-8.0284 -119.118,-199.358 -131.161,-211.4005 -6.69,-6.6903 -90.951,5.3183 -189.969,29.4034 -97.679,22.7472 -179.32,38.8004 -181.997,37.4624 -14.718,-17.3949 -99.02,-244.8479 -95.006,-258.2286 5.353,-12.0425 129.797,-100.3667 289.026,-204.7358 4.015,-1.338 -6.694,-60.1759 -24.089,-128.4172 -34.789,-144.5109 -9.348,-129.7962 -258.228,-156.5576 l -141.835,-16.0738 -10.716,-128.4609 c -6.69,-70.9173 -12.066,-133.8057 -12.066,-141.8339 0,-6.6903 74.947,-34.7778 167.275,-60.2011 92.325,-26.7612 175.298,-50.8725 186.003,-54.8866 13.38,-4.014 20.075,-41.4801 24.089,-132.4683 l 6.666,-127.1106 -163.223,-72.2237 c -88.311,-40.1421 -164.61,-77.6312 -168.624,-82.9834 -5.353,-9.3665 57.555,-266.2551 68.26,-276.9595 2.675,-2.6762 86.97,1.3371 188.663,9.3656 101.691,8.0282 186.017,13.3484 187.355,10.6722 2.676,-1.338 28.092,-54.8434 56.192,-116.3944 l 52.186,-113.7373 -140.527,-133.8189 -140.484,-133.7751 77.626,-117.7448 c 42.817,-64.22701 84.276,-116.43798 92.306,-116.43798 8.028,0 89.656,33.47568 180.645,73.61772 l 167.274,73.57426 82.941,-89.64812 c 46.832,-50.84645 84.301,-94.99952 85.639,-99.01387 0,-4.01413 -38.82,-80.28034 -86.991,-169.93071 -48.17,-90.9885 -86.947,-168.59831 -86.947,-175.28858 0,-9.3666 160.554,-136.49799 211.401,-167.27346 12.043,-6.69028 60.217,29.43341 147.192,108.37917 70.917,65.5652 137.826,124.45909 147.192,129.81113 14.718,9.36661 207.397,-86.98241 222.116,-109.72966 2.676,-5.35226 -6.701,-86.96316 -20.082,-183.30382 -14.718,-96.34061 -24.076,-181.96479 -22.738,-192.6694 4.014,-14.71873 224.776,-108.4228875 258.228,-108.4228875 8.028,0 48.181,68.2832595 90.999,151.2431175 113.735,219.44272 92.317,202.01865 235.489,176.59553 112.398,-21.409 120.421,-25.43025 127.112,-57.54385 4.015,-20.07083 20.099,-107.04568 36.155,-194.019868 l 29.447,-156.55751 h 143.14 141.835 l 36.155,190.012198 c 18.734,103.03112 41.456,192.67521 49.486,198.02752 16.056,10.70461 227.492,44.15261 234.183,37.46234 2.676,-2.67615 45.485,-76.26043 93.656,-164.5728 49.508,-88.31216 95.01,-165.897398 100.362,-172.587888 10.706,-10.7046195 212.741,46.80067 254.222,72.22379 13.381,8.028457 10.712,49.545958 -13.373,198.070988 -16.056,104.36911 -26.753,196.68846 -22.74,207.39308 6.692,18.73279 181.952,116.39447 210.051,116.39447 8.029,0 78.95,-57.53124 156.558,-127.11048 78.945,-69.57934 147.21,-127.11048 153.9,-127.11048 5.352,0 58.857,37.44562 116.394,82.93981 l 107.029,82.9835 -32.104,53.53613 c -17.395,30.77543 -61.548,111.0237 -99.014,180.60305 l -65.558,127.11049 80.281,90.99852 c 45.496,49.50825 89.648,90.99855 99.015,90.99855 10.703,0 97.666,-33.4446 192.669,-74.9247 96.34,-41.48005 177.971,-73.59298 180.647,-70.91705 16.057,16.05688 140.483,215.40735 140.483,224.77385 0,6.6902 -62.876,72.2604 -140.483,147.192 -77.607,73.5936 -140.484,139.1825 -140.484,144.5348 0,6.6902 21.385,60.2014 49.485,121.7523 l 49.528,111.0366 113.737,-8.0154 c 62.89,-4.014 155.216,-10.7093 203.386,-14.7233 l 89.648,-8.0153 29.448,128.4609 c 16.056,70.9175 26.752,136.4752 22.738,145.8416 -4.015,9.3663 -82.973,49.5062 -176.638,89.648 -93.664,40.1418 -172.613,80.3006 -175.289,86.9909 -2.676,8.0286 0,66.8722 5.357,133.7753 l 9.366,119.0953 100.364,29.447 c 54.861,17.3948 143.175,42.8253 194.02,57.5438 l 95.006,28.0969 -14.724,132.4683 c -6.69,73.5936 -16.066,136.457 -20.081,139.1332 -4.014,4.0143 -90.988,14.754 -194.019,22.7824 -103.031,9.3665 -189.982,18.712 -191.32,21.3883 -2.676,1.3379 -20.067,58.8814 -37.461,128.4609 -30.777,117.7496 -30.807,125.7771 -8.06,141.8338 12.044,9.3665 85.633,60.2336 160.565,111.0801 157.892,108.3832 152.556,90.9894 77.626,255.5712 l -48.179,101.671 -176.638,-45.4774 c -97.679,-25.4234 -187.324,-45.5211 -198.028,-45.5211 -17.395,0 -147.191,195.3863 -147.191,220.8096 0,6.6903 50.848,78.912 113.737,161.872 62.888,84.2982 113.737,157.9261 113.737,164.6163 0,22.7472 -189.986,188.6628 -206.043,179.2964 -8.029,-4.0143 -81.612,-52.1996 -164.573,-105.7222 l -149.892,-97.6634 -101.671,81.5895 c -54.861,44.156 -100.365,86.9777 -100.365,95.006 0,8.0285 24.069,92.3526 54.843,187.3551 29.438,95.0025 52.205,173.9193 49.529,176.5955 -2.676,1.3382 -58.857,30.8007 -125.76,64.2522 l -121.795,61.5514 -99.015,-128.4608 c -54.861,-69.5793 -105.678,-135.1492 -115.044,-147.192 -13.38,-17.3947 -32.144,-14.7147 -149.893,24.0892 l -135.125,44.1706 v 191.3192 c 0,105.707 -4.013,191.3624 -9.366,191.3624 -10.703,0 -144.533,20.0742 -224.817,33.4548 z m -233.487,-573.1731 a 1875.4747,1875.4747 0 0 0 1875.468,-1875.4669 1875.4747,1875.4747 0 0 0 -1875.468,-1875.46673 1875.4747,1875.4747 0 0 0 -1875.51,1875.46673 1875.4747,1875.4747 0 0 0 1875.51,1875.4669 z" />
      <path
         id="gear-2"
         style="fill:#7e7e7e;fill-opacity:1;stroke:#4d4d4d;stroke-width:8.14217;stroke-miterlimit:4;stroke-dasharray:none;stroke-opacity:1"
         d="m 22132.957,7647.3369 c -5.35,-2.6752 -34.754,-80.2513 -66.858,-172.5528 l -58.864,-167.2094 -140.491,2.6506 -140.449,4.0393 -60.169,163.1701 c -33.443,89.6263 -64.224,165.8804 -66.9,168.5558 -4.013,2.6754 -68.23,-7.9974 -143.142,-21.3746 l -136.452,-25.4136 -3.997,-188.626 -4.04,-188.6259 -123.029,-44.1376 -123.072,-42.7911 -116.382,145.7927 -116.382,147.1392 -48.176,-28.1067 c -26.754,-16.0524 -81.596,-46.8104 -121.726,-69.5512 -40.132,-22.7412 -74.912,-42.8 -77.588,-44.1376 -2.674,-1.3378 20.053,-78.9137 49.482,-172.553 30.767,-93.6393 54.857,-177.9069 53.52,-185.9331 0,-8.0262 -44.158,-49.4989 -99.004,-90.9678 l -97.616,-76.2415 -149.832,93.6188 c -81.6,50.8329 -153.864,93.6361 -159.215,96.3115 -6.689,1.3376 -53.482,-45.4803 -105.653,-103.0016 l -93.661,-105.6945 111.039,-149.79 111.038,-149.8319 -72.245,-109.6917 c -61.534,-92.3017 -77.585,-107.006 -103.001,-101.6552 -16.052,4.013 -94.983,21.3703 -175.246,40.0983 -80.262,18.7278 -147.157,32.1283 -149.832,29.4531 -6.689,-5.3508 -112.342,-252.8354 -112.342,-259.5238 0,-2.6754 69.561,-50.8483 155.175,-105.6944 86.95,-57.5215 152.498,-108.3221 148.486,-117.6861 -4.015,-8.0262 -16.076,-62.8663 -29.453,-121.7253 -13.377,-58.8591 -25.422,-108.3628 -26.761,-111.0382 -2.676,-4.013 -321.019,-42.8332 -350.449,-42.8332 -18.727,0 -28.107,-48.1333 -34.797,-189.9303 l -5.343,-101.6552 81.585,-22.763 c 45.482,-12.0394 124.43,-33.4287 177.938,-49.4811 108.353,-30.7674 101.676,-22.7417 117.728,-187.2795 l 7.995,-89.6216 -164.516,-82.9734 c -90.965,-45.4821 -167.228,-84.2534 -169.903,-86.9288 -6.689,-6.6884 53.506,-264.8862 64.208,-274.25 4.014,-4.0132 89.636,0.01 188.626,8.0363 98.99,9.364 184.613,14.7092 188.626,12.0338 4.013,-2.6754 29.425,-54.8473 57.518,-116.3818 l 49.481,-112.3424 -77.588,-72.2443 c -41.469,-40.131 -107.024,-100.3163 -143.142,-133.7589 l -65.554,-61.5569 78.934,-115.0355 c 42.806,-64.2096 85.643,-116.3816 95.007,-116.3816 9.364,0 86.947,30.7825 173.899,66.9006 86.951,37.4558 163.181,66.8583 171.207,66.8583 6.688,0 50.82,-41.4727 94.965,-90.9677 l 81.627,-90.9261 -93.66,-171.2484 c -50.834,-94.9773 -86.928,-175.2388 -80.239,-180.5896 6.688,-4.0132 58.86,-42.8174 116.382,-85.6243 l 104.306,-78.8922 42.833,38.7941 c 22.742,20.0657 84.282,77.5738 136.452,127.0689 53.509,50.8328 104.325,90.968 113.689,90.968 10.702,0 62.873,-24.0909 116.381,-53.5206 111.03,-62.8721 105.679,-42.7864 70.898,-280.8981 -14.714,-92.3018 -21.382,-171.2325 -16.031,-175.2457 4.012,-5.3508 58.855,-25.4186 121.726,-45.484 62.873,-20.0659 120.389,-40.1578 128.415,-42.8332 9.364,-2.6754 54.819,70.9278 105.652,165.9049 48.157,93.6394 90.986,172.5703 93.661,175.2457 2.676,2.6754 58.838,-2.7029 125.723,-10.7292 l 120.421,-17.3773 14.684,-68.247 c 6.689,-37.4558 24.113,-125.7131 37.49,-195.274 l 22.721,-127.1111 143.142,-3.997 c 127.083,-2.6754 143.144,-1.3333 149.832,20.0701 4.013,13.377 20.04,98.9662 34.754,189.9302 16.053,92.3017 30.783,171.2415 34.797,176.5923 2.675,5.3508 49.494,16.05 103.002,25.4138 52.171,8.0263 105.689,18.7412 117.728,21.4166 17.39,5.3508 45.467,-37.4621 120.379,-175.2459 53.507,-98.9901 101.681,-180.5894 105.694,-180.5894 4.013,0 64.199,20.0676 133.759,45.484 103.004,36.1181 127.093,50.8323 124.418,70.8977 -2.674,13.3772 -16.043,104.3202 -30.757,203.3104 -14.716,97.6527 -25.446,180.5984 -24.11,181.936 2.675,1.3378 52.171,28.0968 109.692,58.864 123.069,65.5475 90.988,77.5975 287.631,-101.6552 66.885,-61.5344 127.07,-111.0381 133.759,-111.0381 13.376,0 206.005,157.8468 212.693,173.8995 1.338,5.3508 -17.375,46.8237 -42.791,90.9677 -25.416,45.4821 -69.559,125.7683 -96.312,177.9388 l -49.523,93.6186 89.621,90.9681 90.968,90.9678 188.626,-77.5878 188.626,-76.2413 70.898,105.6524 c 38.794,57.5215 70.898,109.693 70.898,116.3817 0,6.6884 -62.862,74.9293 -140.449,151.1784 -157.85,155.1738 -152.518,137.7899 -86.971,284.9375 l 41.487,92.2722 143.099,-9.3408 c 78.926,-5.3508 171.256,-12.0267 204.7,-17.3773 l 61.514,-6.6901 29.453,117.6861 c 16.053,65.5477 32.079,128.4518 34.755,140.4913 5.35,14.7148 -36.088,38.7568 -169.86,97.6159 -97.652,42.8064 -183.283,82.9663 -189.972,88.3171 -6.688,6.6887 -4.02,65.5288 5.343,139.1027 l 17.42,128.4155 54.824,14.7264 c 29.43,9.3638 115.052,32.1085 188.626,52.1739 l 133.759,36.1013 -3.997,132.4545 c -2.675,73.5739 -9.365,136.4447 -13.38,141.7955 -5.35,4.0132 -96.336,16.0587 -203.352,26.7603 l -193.97,17.3773 -30.757,120.3789 c -16.053,66.8853 -26.744,127.088 -24.068,136.452 4.014,8.0262 70.874,60.2226 151.137,113.7308 78.925,53.5083 149.833,101.6481 156.522,106.9989 10.701,6.6886 -72.242,223.4129 -97.658,254.1801 -4.014,5.3508 -94.981,-12.0732 -200.66,-37.4894 -105.679,-25.4167 -193.936,-44.129 -195.274,-42.7912 -29.43,40.1311 -140.491,212.6949 -140.491,219.3833 0,4.0132 50.859,76.2685 113.731,157.8686 62.873,82.9375 113.689,155.177 113.689,161.8656 0,6.6884 -42.795,56.1747 -94.965,108.3451 l -94.965,96.3117 -149.832,-96.3117 c -81.599,-53.508 -155.195,-100.3434 -164.559,-105.6944 -10.702,-6.6884 -141.778,81.6251 -216.691,145.835 -2.674,2.6754 20.061,86.9427 50.828,185.933 32.106,98.9902 53.527,185.9432 48.177,193.9694 -9.364,14.7149 -212.698,120.379 -232.763,120.379 -6.69,0 -61.537,-65.5391 -123.072,-147.1392 -127.083,-165.8755 -101.679,-157.8617 -279.594,-92.3143 l -100.309,36.1431 -4.039,188.5839 -3.998,187.2795 -42.833,6.6899 c -121.73,20.0654 -218.038,30.7735 -224.727,26.7603 z M 21658.09,6583.8705 c 116.38,20.0657 386.609,16.0596 492.287,-5.3437 573.875,-119.0557 993.909,-532.4293 1115.64,-1094.2659 28.091,-131.0952 28.082,-399.9455 -1.346,-537.7291 -97.654,-464.184 -402.661,-844.1242 -821.362,-1024.7147 -197.982,-84.2751 -327.746,-110.9959 -549.805,-110.9959 -222.06,0 -351.825,26.7208 -549.805,110.9959 -634.072,272.8922 -971.167,985.9066 -786.565,1661.4482 41.47,153.8362 157.876,377.2141 262.216,506.9717 204.67,251.4886 525.716,441.4631 838.74,493.6335 z m 334.082,-187.8264 c -92.4,8.1914 -184.458,3.5918 -286.032,-12.7911 -349.94,-56.3573 -674.979,-284.3904 -850.605,-600.2537 -102.229,-183.489 -162.531,-454.7913 -146.802,-657.9397 41.94,-528.1863 387.948,-946.2984 895.163,-1083.9153 148.102,-39.3191 439.066,-39.3191 587.168,0 116.647,32.7658 289.672,111.4158 381.418,173.0158 363.045,250.3313 572.747,703.8107 517.7,1123.2141 -38.008,288.3397 -150.712,511.1539 -361.725,718.2342 -129.754,127.1318 -276.54,217.586 -448.234,276.5644 -102.885,34.732 -195.651,55.6798 -288.051,63.8713 z m -72.707,-668.585 c 60.289,-4.751 121.542,-15.8891 164.138,-32.2722 361.735,-136.3059 454.797,-635.6509 165.147,-896.4675 -311.931,-280.4759 -813.928,-110.1208 -889.946,304.0399 -47.183,263.4379 140.243,551.7985 402.371,618.6409 38.664,9.1745 98,10.81 158.29,6.0589 z" />
      <path
         id="gear-7"
         style="fill:#7e7e7e;fill-opacity:1;stroke:#4d4d4d;stroke-width:8.14217;stroke-miterlimit:4;stroke-dasharray:none;stroke-opacity:1"
         d="m 11919.688,11034.492 c -5.35,-2.675 -34.754,-80.251 -66.858,-172.553 l -58.864,-167.209 -140.491,2.65 -140.449,4.04 -60.169,163.17 c -33.443,89.626 -64.224,165.88 -66.9,168.555 -4.013,2.676 -68.23,-7.997 -143.142,-21.374 l -136.452,-25.414 -3.997,-188.626 -4.04,-188.626 -123.029,-44.137 -123.072,-42.791 -116.382,145.792 -116.382,147.14 -48.176,-28.107 c -26.754,-16.053 -81.596,-46.811 -121.726,-69.551 -40.132,-22.742 -74.912,-42.8 -77.588,-44.138 -2.674,-1.338 20.053,-78.914 49.482,-172.553 30.767,-93.639 54.857,-177.907 53.52,-185.933 0,-8.026 -44.158,-49.499 -99.004,-90.968 l -97.616,-76.241 -149.832,93.618 c -81.6,50.833 -153.8643,93.637 -159.2153,96.312 -6.689,1.338 -53.482,-45.48 -105.653,-103.002 l -93.661,-105.694 111.039,-149.7904 111.0379,-149.8319 -72.2449,-109.6917 c -61.534,-92.3017 -77.585,-107.006 -103.001,-101.6552 -16.052,4.013 -94.983,21.3703 -175.246,40.0983 -80.262,18.7278 -147.157,32.1283 -149.832,29.4531 -6.689,-5.3508 -112.342,-252.8354 -112.342,-259.5238 0,-2.6754 69.561,-50.8483 155.175,-105.6944 86.95,-57.5215 152.498,-108.3221 148.486,-117.6861 -4.015,-8.0262 -16.076,-62.8663 -29.453,-121.7253 -13.377,-58.8591 -25.422,-108.3628 -26.761,-111.0382 -2.676,-4.013 -321.019,-42.8332 -350.449,-42.8332 -18.727,0 -28.107,-48.1333 -34.797,-189.9303 l -5.343,-101.6552 81.585,-22.763 c 45.482,-12.0394 124.43,-33.4287 177.938,-49.4811 108.353,-30.7674 101.676,-22.7417 117.728,-187.2795 l 7.995,-89.6216 -164.516,-82.9734 c -90.965,-45.4821 -167.228,-84.2534 -169.903,-86.9288 -6.689,-6.6884 53.506,-264.8862 64.208,-274.25 4.014,-4.0132 89.636,0.01 188.626,8.0363 98.99,9.364 184.613,14.7092 188.626,12.0338 4.013,-2.6754 29.425,-54.8473 57.518,-116.3818 l 49.481,-112.3424 -77.588,-72.2443 c -41.469,-40.131 -107.024,-100.3163 -143.142,-133.7589 l -65.554,-61.5569 78.934,-115.0355 c 42.806,-64.2096 85.643,-116.3816 95.007,-116.3816 9.364,0 86.947,30.7825 173.899,66.9006 86.9509,37.4558 163.1813,66.8583 171.2073,66.8583 6.688,0 50.82,-41.4727 94.965,-90.9677 l 81.627,-90.9261 -93.66,-171.2484 c -50.834,-94.9773 -86.928,-175.2388 -80.239,-180.5896 6.688,-4.0132 58.86,-42.8174 116.382,-85.6243 l 104.306,-78.8922 42.833,38.7941 c 22.742,20.0657 84.282,77.5738 136.452,127.0689 53.509,50.8328 104.325,90.968 113.689,90.968 10.702,0 62.873,-24.0909 116.381,-53.5206 111.03,-62.8721 105.679,-42.7864 70.898,-280.8981 -14.714,-92.3018 -21.382,-171.2325 -16.031,-175.2457 4.012,-5.3508 58.855,-25.4186 121.726,-45.484 62.873,-20.0659 120.389,-40.1578 128.415,-42.8332 9.364,-2.6754 54.819,70.9278 105.652,165.9049 48.157,93.6394 90.986,172.5703 93.661,175.2457 2.676,2.6754 58.838,-2.7029 125.723,-10.7292 l 120.421,-17.3773 14.684,-68.247 c 6.689,-37.4558 24.113,-125.7131 37.49,-195.274 l 22.721,-127.1111 143.142,-3.997 c 127.083,-2.6754 143.144,-1.3333 149.832,20.0701 4.013,13.377 20.04,98.9662 34.754,189.9302 16.053,92.3017 30.783,171.2415 34.797,176.5923 2.675,5.3508 49.494,16.05 103.002,25.4138 52.171,8.0263 105.689,18.7412 117.728,21.4166 17.39,5.3508 45.467,-37.4621 120.379,-175.2459 53.507,-98.9901 101.681,-180.5894 105.694,-180.5894 4.013,0 64.199,20.0676 133.759,45.484 103.004,36.1181 127.093,50.8323 124.418,70.8977 -2.674,13.3772 -16.043,104.3202 -30.757,203.3104 -14.716,97.6527 -25.446,180.5984 -24.11,181.936 2.675,1.3378 52.171,28.0968 109.692,58.864 123.069,65.5475 90.988,77.5975 287.631,-101.6552 66.885,-61.5344 127.07,-111.0381 133.759,-111.0381 13.376,0 206.005,157.8468 212.693,173.8995 1.338,5.3508 -17.375,46.8237 -42.791,90.9677 -25.416,45.4821 -69.559,125.7683 -96.312,177.9388 l -49.523,93.6186 89.621,90.9681 90.968,90.9678 188.626,-77.5878 188.626,-76.2413 70.898,105.6524 c 38.794,57.5215 70.898,109.693 70.898,116.3817 0,6.6884 -62.862,74.9293 -140.449,151.1784 -157.85,155.1738 -152.518,137.7899 -86.971,284.9375 l 41.487,92.2722 143.099,-9.3408 c 78.926,-5.3508 171.256,-12.0267 204.7,-17.3773 l 61.514,-6.6901 29.453,117.6861 c 16.053,65.5477 32.079,128.4518 34.755,140.4913 5.35,14.7148 -36.088,38.7568 -169.86,97.6159 -97.652,42.8064 -183.283,82.9663 -189.972,88.3171 -6.688,6.6887 -4.02,65.5288 5.343,139.1027 l 17.42,128.4155 54.824,14.7264 c 29.43,9.3638 115.052,32.1085 188.626,52.1739 l 133.759,36.1013 -3.997,132.4545 c -2.675,73.5739 -9.365,136.4447 -13.38,141.7955 -5.35,4.0132 -96.336,16.0587 -203.352,26.7603 l -193.97,17.3773 -30.757,120.3789 c -16.053,66.8853 -26.744,127.088 -24.068,136.452 4.014,8.0262 70.874,60.2226 151.137,113.7308 78.925,53.5083 149.833,101.6481 156.522,106.9989 10.701,6.6886 -72.242,223.4129 -97.658,254.1801 -4.014,5.3508 -94.981,-12.0732 -200.66,-37.4894 -105.679,-25.4167 -193.936,-44.129 -195.274,-42.7912 -29.43,40.1311 -140.491,212.6949 -140.491,219.3833 0,4.0132 50.859,76.2685 113.731,157.8689 62.873,82.937 113.689,155.177 113.689,161.866 0,6.688 -42.795,56.174 -94.965,108.345 l -94.965,96.311 -149.832,-96.311 c -81.599,-53.508 -155.195,-100.344 -164.559,-105.695 -10.702,-6.688 -141.778,81.625 -216.691,145.835 -2.674,2.676 20.061,86.943 50.828,185.933 32.106,98.99 53.527,185.943 48.177,193.97 -9.364,14.715 -212.698,120.379 -232.763,120.379 -6.69,0 -61.537,-65.539 -123.072,-147.14 -127.083,-165.875 -101.679,-157.861 -279.594,-92.314 l -100.309,36.143 -4.039,188.584 -3.998,187.28 -42.833,6.69 c -121.73,20.065 -218.038,30.773 -224.727,26.76 z m -474.867,-1063.4668 c 116.38,20.0657 386.609,16.0596 492.287,-5.3437 573.875,-119.0557 993.909,-532.4293 1115.64,-1094.2659 28.091,-131.0952 28.082,-399.9455 -1.346,-537.7291 -97.654,-464.184 -402.661,-844.1242 -821.362,-1024.7147 -197.982,-84.2751 -327.746,-110.9959 -549.805,-110.9959 -222.06,0 -351.825,26.7208 -549.805,110.9959 -634.072,272.8922 -971.167,985.9066 -786.565,1661.4482 41.47,153.8362 157.876,377.2141 262.216,506.9717 204.67,251.4886 525.716,441.4631 838.74,493.6335 z m 334.082,-187.8264 c -92.4,8.1914 -184.458,3.5918 -286.032,-12.7911 -349.94,-56.3573 -674.979,-284.3904 -850.605,-600.2537 -102.229,-183.489 -162.531,-454.7913 -146.802,-657.9397 41.94,-528.1863 387.948,-946.2984 895.163,-1083.9153 148.102,-39.3191 439.066,-39.3191 587.168,0 116.647,32.7658 289.672,111.4158 381.418,173.0158 363.045,250.3313 572.747,703.8107 517.7,1123.2141 -38.008,288.3397 -150.712,511.1539 -361.725,718.2342 -129.754,127.1318 -276.54,217.586 -448.234,276.5644 -102.885,34.732 -195.651,55.6798 -288.051,63.8713 z m -72.707,-668.585 c 60.289,-4.751 121.542,-15.8891 164.138,-32.2722 361.735,-136.3059 454.797,-635.6509 165.147,-896.4675 -311.931,-280.4759 -813.928,-110.1208 -889.946,304.0399 -47.183,263.4379 140.243,551.7985 402.371,618.6409 38.664,9.1745 98,10.81 158.29,6.0589 z" />
      <path
         d="m 18607.506,11213.361 -120.232,-22.71 -4.008,-188.364 -4.007,-188.363 -118.897,-41.413 c -65.46,-22.711 -124.239,-41.413 -132.255,-41.413 -6.68,0 -61.452,62.788 -121.567,140.27 -60.117,78.819 -113.553,140.271 -118.897,137.599 -60.116,-25.383 -241.799,-138.935 -241.799,-150.958 0,-8.015 24.046,-82.826 53.436,-165.653 29.39,-81.491 53.436,-157.638 53.436,-166.989 0,-17.366 -184.356,-168.324 -204.394,-168.324 -4.008,0 -74.811,42.749 -156.302,93.513 -81.49,52.101 -149.622,93.514 -152.293,93.514 -2.673,0 -48.093,-48.092 -101.53,-106.873 l -96.185,-106.873 52.1,-62.787 c 29.391,-36.07 81.491,-101.53 116.225,-146.951 l 62.788,-84.162 -69.468,-102.8648 c -38.741,-57.445 -70.803,-106.873 -73.476,-109.545 -4.007,-4.008 -281.876,54.772 -340.657,73.475 -17.366,4.008 -34.733,-24.046 -77.482,-130.919 -29.391,-74.811 -49.429,-138.935 -44.085,-142.943 6.68,-4.007 74.811,-49.428 153.629,-100.193 160.309,-102.865 149.622,-74.811 104.201,-261.8386 l -21.374,-86.8341 -183.02,-18.7028 -183.019,-18.7027 -6.68,-54.7724 c -4.008,-29.39 -10.688,-94.8497 -14.695,-142.9424 l -8.016,-89.5061 44.085,-13.3591 c 24.046,-8.0154 104.201,-30.7259 177.677,-50.7646 73.475,-20.0386 137.599,-40.0773 141.606,-44.0851 5.344,-4.0076 12.023,-61.4518 17.367,-128.2474 l 8.015,-120.2319 -142.942,-65.4596 c -80.154,-36.0696 -157.638,-73.4751 -172.333,-82.8265 l -29.39,-17.3669 37.406,-130.9192 36.069,-130.9193 h 65.46 c 36.07,1.3359 122.904,4.0077 192.371,6.6796 l 126.912,5.3436 49.429,-112.2165 48.092,-113.5524 -140.271,-133.5912 -141.606,-134.9269 77.483,-112.2166 c 42.749,-62.7878 80.155,-116.2242 82.826,-118.896 2.672,-2.6718 82.827,28.0541 180.348,69.4674 l 176.34,76.1468 32.062,-30.7258 c 17.367,-16.0309 56.109,-57.4442 84.162,-92.1779 l 53.437,-62.7878 -86.834,-173.6684 -88.17,-173.6684 113.553,-88.1701 113.552,-89.5061 146.95,134.9271 145.615,133.591 106.872,-60.1159 c 60.116,-34.7338 108.209,-66.7956 108.209,-74.811 0,-6.6797 -12.023,-94.8497 -28.055,-193.7071 -14.694,-100.1933 -22.71,-185.6917 -16.03,-191.0353 5.343,-5.3437 66.795,-28.0541 134.926,-49.4287 l 122.905,-40.0773 68.131,121.5678 c 38.741,66.7956 82.826,145.6143 100.194,176.3403 l 30.726,53.4364 117.56,-20.0387 c 64.123,-10.6872 118.896,-20.0385 121.567,-21.3745 1.336,-2.6718 20.039,-89.5061 41.414,-195.043 l 37.405,-192.3711 141.607,-4.0077 140.27,-4.0078 14.695,70.8032 c 8.016,38.7415 25.383,126.9116 38.742,196.379 26.718,144.2783 21.374,138.9347 188.363,154.9656 l 88.17,9.3514 90.842,-168.3248 c 50.765,-92.1778 96.186,-170.9965 101.529,-173.6684 5.344,-4.0077 68.131,14.6951 138.935,41.4133 114.889,41.4132 128.247,50.7646 122.904,76.1468 -2.672,14.6951 -14.695,88.1702 -26.718,161.6453 -10.688,73.4751 -22.711,149.622 -26.718,169.6607 -6.68,41.4132 -2.673,44.085 121.567,112.2165 l 94.85,50.7646 125.576,-112.2166 c 69.467,-61.4519 138.935,-124.2396 154.965,-137.5987 28.055,-25.3824 29.39,-24.0465 133.592,57.4441 57.443,46.7569 105.537,88.1702 108.208,93.5138 1.336,4.0077 -38.742,86.8342 -90.842,180.3479 -52.1,94.8497 -92.177,176.3403 -90.842,181.6839 2.672,4.0077 41.414,48.0928 86.834,97.5215 l 82.827,90.842 144.278,-64.1238 c 78.819,-34.7336 164.318,-70.8032 187.028,-80.1546 l 44.085,-18.7028 73.475,109.5447 c 40.078,61.4519 73.475,117.5602 73.475,126.9116 0,8.0154 -20.039,30.7258 -42.749,50.7645 -24.046,20.0387 -90.842,81.4906 -146.95,134.927 l -102.866,97.5215 53.437,114.8883 54.773,116.2242 203.058,-9.3513 204.394,-10.6872 33.398,134.9269 33.398,133.5911 -181.684,80.1546 -181.684,78.8188 4.007,125.5756 c 2.673,69.4673 6.68,126.9115 9.352,129.5834 2.671,2.6718 88.171,29.39 192.371,61.4518 102.865,30.726 191.035,58.7802 195.044,62.7878 6.679,8.0155 -16.032,253.8231 -25.383,263.1744 -2.672,2.6719 -92.178,13.3592 -196.379,25.3824 -105.537,10.6872 -193.707,22.7105 -196.379,24.0464 -2.672,2.6718 -17.366,58.7801 -34.734,125.5756 -34.733,142.9429 -50.764,116.2239 154.966,253.8229 l 142.942,94.85 -21.374,49.429 c -56.108,136.263 -98.857,205.73 -121.568,199.05 -12.023,-4.007 -88.17,-22.71 -169.66,-41.413 -80.155,-18.703 -156.302,-37.405 -166.989,-40.077 -13.359,-4.008 -42.75,29.39 -90.843,106.873 l -70.802,112.2158 113.552,154.966 c 64.124,84.162 114.888,157.637 114.888,162.981 0,5.343 -42.749,53.437 -94.85,105.537 l -94.85,96.186 -160.309,-105.537 -161.645,-104.201 -54.772,38.741 c -29.39,22.711 -77.483,60.116 -106.873,84.163 l -50.765,42.749 54.772,175.004 c 30.726,94.85 54.774,179.012 54.774,187.028 0,18.702 -233.785,130.919 -251.152,120.231 -8.016,-4.008 -62.788,-72.139 -122.904,-148.286 l -106.873,-140.27 -128.248,46.756 c -70.802,25.383 -130.919,46.758 -133.59,46.758 -2.672,0 -6.68,85.498 -8.016,191.034 l -4.007,189.7 -132.256,16.031 c -73.475,9.351 -134.926,14.695 -138.935,12.023 -2.671,-4.007 -30.726,-80.155 -62.788,-170.996 l -57.443,-164.318 -137.599,-4.007 -138.935,-4.008 -61.452,170.997 c -37.405,102.864 -69.467,172.332 -80.154,172.332 -10.687,1.336 -72.14,-8.016 -138.935,-20.039 z m 798.875,-1068.728 c 231.112,-60.116 431.499,-173.6688 614.518,-347.3368 57.445,-54.773 110.881,-110.881 116.224,-122.904 10.688,-18.703 -28.053,-45.421 -249.814,-172.333 l -261.839,-150.9575 -81.49,44.0855 c -44.086,25.382 -129.584,73.475 -188.364,106.872 l -106.873,61.452 -4.008,303.252 -2.672,303.2518 h 30.726 c 17.368,0 77.483,-12.023 133.592,-25.382 z m -527.685,-283.2128 -4.008,-295.237 -185.692,-105.537 c -101.529,-58.78 -192.371,-105.5368 -201.722,-102.8649 -38.741,9.3509 -500.967,285.8849 -500.967,299.2439 0,30.726 187.028,215.082 287.221,284.549 175.005,121.5678 410.125,212.4098 551.731,213.7458 l 56.108,1.336 z m -824.257,-662.6124 252.486,-144.2783 v -233.7844 -233.7844 l -162.98,-96.1855 c -90.842,-52.1005 -211.074,-121.568 -267.182,-156.3016 l -102.866,-60.1161 -33.398,102.8652 c -90.841,288.5568 -88.169,570.434 6.68,879.0293 14.695,46.7569 33.398,85.4984 41.414,85.4984 8.015,0 126.911,-64.1238 265.846,-142.9426 z m 2308.453,69.4675 c 76.148,-203.0585 101.53,-488.9435 61.452,-700.0174 -26.717,-137.5988 -70.802,-281.8771 -86.834,-281.8771 -6.68,0 -126.911,66.7955 -267.182,148.2861 l -253.823,148.2861 v 236.4562 236.4562 l 244.472,141.6065 c 133.591,78.8188 249.816,142.9425 259.166,144.2785 8.016,0 28.055,-33.3979 42.749,-73.4751 z m -1174.265,-96.1857 c 212.41,-68.1314 323.291,-331.3059 225.769,-538.372 -88.17,-187.0275 -280.541,-276.5336 -472.912,-220.4253 -61.453,17.3668 -93.514,37.4055 -153.63,97.5215 -89.506,89.506 -120.232,165.6529 -120.232,296.5722 0,268.5181 257.831,450.202 521.005,364.7036 z m -511.654,-1029.9872 197.715,-117.5601 4.008,-304.5877 2.671,-304.5876 -56.108,9.3513 c -170.996,26.7183 -390.086,116.2243 -551.731,224.433 -81.49,54.7724 -327.298,292.5645 -327.298,315.2749 0,6.6797 10.688,16.031 24.047,20.0387 12.023,4.0078 125.575,68.1315 249.814,141.6066 125.576,73.4751 233.785,133.5911 243.136,133.5911 8.016,0 104.202,-53.4365 213.746,-117.5602 z m 1243.733,-29.39 c 133.592,-76.1469 243.136,-145.6143 243.136,-153.6298 0,-22.7104 -184.356,-208.402 -276.533,-277.8695 -158.974,-121.5678 -407.453,-231.1125 -582.458,-256.4948 l -62.788,-9.3513 v 304.5876 305.9236 l 197.715,116.2242 c 108.209,64.1237 205.73,114.8883 216.418,113.5525 12.023,-1.336 130.919,-65.4597 264.51,-142.9425 z"
         id="path1195-5"
         style="fill:#7e7e7e;fill-opacity:1;stroke:#4d4d4d;stroke-width:8.14217;stroke-miterlimit:4;stroke-dasharray:none;stroke-opacity:1" />
    </g>
  </g>
</svg>
