<?xml version="1.0" encoding="UTF-8" standalone="no"?>
<!-- Created with Inkscape (http://www.inkscape.org/) -->

<svg
   width="117.85674mm"
   height="112.30111mm"
   viewBox="0 0 117.85674 112.30111"
   version="1.1"
   id="svg7137"
   inkscape:version="1.1.1 (3bf5ae0, 2021-09-20)"
   sodipodi:docname="picture-gears2.svg"
   xmlns:inkscape="http://www.inkscape.org/namespaces/inkscape"
   xmlns:sodipodi="http://sodipodi.sourceforge.net/DTD/sodipodi-0.dtd"
   xmlns="http://www.w3.org/2000/svg"
   xmlns:svg="http://www.w3.org/2000/svg">
  <sodipodi:namedview
     id="namedview7139"
     pagecolor="#ffffff"
     bordercolor="#6a6a6a"
     borderopacity="1"
     inkscape:pageshadow="0"
     inkscape:pageopacity="0"
     inkscape:pagecheckerboard="0"
     inkscape:document-units="mm"
     showgrid="false"
     inkscape:snap-global="false"
     fit-margin-top="0"
     fit-margin-left="0"
     fit-margin-right="0"
     fit-margin-bottom="0"
     inkscape:zoom="0.67024358"
     inkscape:cx="173.8174"
     inkscape:cy="175.3094"
     inkscape:window-width="1294"
     inkscape:window-height="704"
     inkscape:window-x="72"
     inkscape:window-y="27"
     inkscape:window-maximized="1"
     inkscape:current-layer="g7266" />
  <defs
     id="defs7134" />
  <g
     inkscape:label="Layer 1"
     inkscape:groupmode="layer"
     id="layer1"
     transform="translate(-38.135178,-24.576717)">
    <g
       transform="matrix(0.01449687,0,0,-0.01449687,-206.83436,123.84954)"
       fill="#000000"
       stroke="none"
       id="g7266">
      <path
         d="m 23309.107,5402.6292 -44,-131 -104,3 -105,3 -45,124 -45,123 -46,-6 c -25,-3 -73,-11 -107,-17 l -62,-11 -3,-140 -3,-141 -92,-33 -91,-33 -87,109 c -48,61 -90,108 -94,106 -121,-68 -171,-101 -171,-113 0,-9 16,-65 35,-124 19,-60 35,-115 35,-123 0,-14 -135,-126 -152,-126 -5,0 -59,32 -120,71 -61,39 -114,67 -117,62 -4,-4 -38,-42 -75,-85 -37,-42 -63,-79 -58,-82 5,-3 44,-51 87,-106 l 76,-100 -53,-85 c -36,-58 -58,-83 -68,-80 -16,5 -247,55 -254,55 -2,0 -15,-28 -29,-62 -14,-35 -32,-79 -41,-100 l -16,-36 113,-73 c 61,-39 114,-73 116,-75 5,-4 -30,-169 -38,-182 -4,-6 -67,-18 -141,-28 -74,-9 -136,-18 -138,-19 -2,-1 -6,-50 -9,-108 l -6,-104.9999 44,-12 c 116,-30 222,-60 224,-62 1,-2 5,-45 9,-96 l 7,-93 -93,-43 c -51,-24 -110,-51 -130,-59 l -37,-16 13,-48 c 8,-26 22,-74 31,-107.0001 l 16,-59 77,7 c 42,3 106,9 142,12 l 65,6 39,-88 40,-87 -107,-99 -107,-100 61,-89 c 33,-49 62,-89 65,-89 3,0 62,25 130,55 69,30 128,54 132,54 4,-1 36,-32 71,-70 47,-50 61,-72 54,-81 -6,-7 -38,-65 -72,-130 l -61,-116 85,-67 c 99,-77 76,-83 220,50 l 87,79 85,-43 c 73,-37 84,-47 79,-65 -16,-66 -38,-268 -30,-275 5,-5 50,-22 101,-39 l 92,-30 68,130 68,130 59,-7 c 32,-3 75,-12 95,-18 l 36,-12 29,-142 29,-143 h 107 107 l 22,138 c 13,75 24,142 26,148 3,9 137,34 182,34 6,0 42,-57 80,-126 37,-69 73,-128 79,-131 13,-5 182,55 190,68 3,5 -4,73 -16,151 -13,84 -18,144 -12,150 5,5 42,26 82,47 l 73,39 111,-99 c 61,-54 114,-99 117,-99 5,0 152,110 167,124 1,2 -31,63 -72,137 l -75,133 53,60 c 29,33 60,64 68,70 12,7 51,-4 155,-46 76,-31 140,-55 144,-53 3,3 29,42 58,89 l 52,85 -68,64 c -37,35 -88,81 -112,103 l -44,40 41,87 41,87 153,-3 153,-2 22,80.0001 c 12,44 22,87 22,96 1,11 -39,34 -131,76 l -133,59 -3,101 -3,101 53,15 c 29,9 97,28 151,42 91,25.9999 97,28.9999 97,53.9999 -1,30 -19,173 -23,177 -1,1 -68,8 -148,15 l -147,12 -21,86 c -11,48 -21,93 -21,101 0,8 47,46 103,83 56,38 110,74 120,81 16,12 14,19 -25,105 -28,62 -46,91 -58,91 -9,0 -62,-11 -116,-24 -177,-43 -153,-48 -210,41 -27,42 -50,81 -52,85 -2,4 38,62 89,128 l 92,121 -73,67 c -40,37 -77,68 -81,70 -4,2 -55,-29 -114,-68 -58,-39 -112,-73 -120,-76 -8,-4 -45,20 -90,56 -41,35 -75,63 -75,64 0,0 20,63 44,139 l 44,138 -77,38 c -120,61 -106,64 -191,-46 -41,-53 -79,-102 -85,-110 -8,-11 -28,-7 -110,20 l -100,34 -3,141 c -1,78 -6,142 -10,142 -7,0 -112,16 -168,25 l -31,5 z m 1,-370 c 86,-14 118,-27 158,-64 55,-51 64,-140 27,-269 -46,-157 -187,-307 -290,-307 -89,0 -167,81 -259,269 -43,88 -51,115 -54,173 -4,60 -1,73 21,107 54,82 217,119 397,91 z m -945,-467 c 16,-9 60,-46 96,-82 72,-73 143,-198 154,-274 14,-92 -34,-184 -114,-221 -40,-18 -64,-21 -186,-21 -176,0 -230,13 -291,69 -36,32 -49,53 -59,94 -17,65 -5,119 48,214 121,216 229,284 352,221 z m 1828,-26 c 51,-22 105,-91 163,-210 60,-123 74,-190 54,-251 -35,-108 -137,-156 -331,-156 -209,0 -303,62 -302,200 2,127 145,365 248,411 47,22 123,24 168,6 z m -899,-538 c 73,-27 148,-96 183,-167 54,-110.9999 28,-258.9999 -65,-354.9999 -114,-118 -301,-130 -431,-27 -73,58 -115,149 -116,249 0,62.9999 5,85.9999 28,132.9999 74,151 249,224 401,167 z m -841,-538.9999 c 160,-60 179,-201 56,-412.0001 -84,-144 -155,-198 -259,-198 -105,0 -150,40 -240,214 -45,88 -55,116 -58,170.0001 -5,84 10,128 61,171 61,53 139,74 274,74 89,1 123,-3 166,-19 z m 1697,-31 c 86,-10 158,-36 194,-67 25,-23 66,-111 66,-144.0001 0,-45 -29,-118 -83,-208 -110,-182 -198,-234 -312,-181 -126,58 -265,265 -265,394 1,100.0001 57,174.0001 150,196.0001 93,22 142,24 250,10 z m -899,-452.0001 c 112,-59 248,-338 225,-460 -9,-50 -55,-100 -118,-128 -48,-22 -67,-24 -198,-24 -136,0 -148,2 -202,27 -83,39 -113,88 -112,182 2,80 26,153 82,250 89,154 211,212 323,153 z"
         id="path7256-7-9-3"
         style="fill:#7d7d7d;fill-opacity:1;stroke:#636363;stroke-width:35.5939;stroke-miterlimit:4;stroke-dasharray:none;stroke-opacity:1" />
      <path
         d="m 21191.585,2649.1006 -44,-131 -104,3 -105,3 -45,124 -45,123 -46,-6 c -25,-3 -73,-11 -107,-17 l -62,-11 -3,-140 -3,-141 -92,-33 -91,-33 -87,109 c -48,61 -90,108 -94,106 -121,-68 -171,-101 -171,-113 0,-9 16,-65 35,-124 19,-60 35,-115 35,-123 0,-14 -135,-126 -152,-126 -5,0 -59,32 -120,71 -61,39 -114,67 -117,62 -4,-4 -38,-42 -75,-85 -37,-42 -63,-79 -58,-82 5,-3 44,-51 87,-106 l 76,-100 -53,-85 c -36,-58 -58,-83 -68,-80 -16,5 -247,55 -254,55 -2,0 -15,-28 -29,-62 -14,-35 -32,-79 -41,-100 l -16,-36 113,-73 c 61,-39 114,-73 116,-75 5,-4 -30,-169 -38,-182 -4,-6 -67,-18 -141,-28 -74,-9 -136,-18 -138,-19 -2,-1 -6,-50 -9,-108 l -6,-104.99996 44,-12 c 116,-30 222,-60 224,-62 1,-2 5,-45 9,-96 l 7,-93.00002 -93,-43 c -51,-24 -110,-51 -130,-59 l -37,-16 13,-48 c 8,-26 22,-74 31,-107.00004 l 16,-59 77,7 c 42,3 106,9 142,12 l 65,6 39,-88 40,-87 -107,-99 -107,-100.000004 61,-89 c 33,-48.999996 62,-88.999996 65,-88.999996 3,0 62,25 130,54.999996 69,30 128,54 132,54 4,-1 36,-32 71,-69.999996 47,-50 61,-72 54,-81 -6,-7 -38,-65 -72,-130 l -61,-116 85,-67 c 99,-77 76,-83 220,50 l 87,79 85,-43 c 73,-37 84,-47 79,-65 -16,-66 -38,-268 -30,-275 5,-5 50,-22 101,-39 l 92,-30 68,130 68,130 59,-7 c 32,-3 75,-12 95,-18 l 36,-12 29,-142 29,-143 h 107 107 l 22,138 c 13,75 24,142 26,148 3,9 137,34 182,34 6,0 42,-57 80,-126 37,-69 73,-128 79,-131 13,-5 182,55 190,68 3,5 -4,73 -16,151 -13,84 -18,144 -12,150 5,5 42,26 82,47 l 73,39 111,-99 c 61,-54 114,-99 117,-99 5,0 152,110 167,124 1,2 -31,63 -72,137 l -75,133 53,60 c 29,32.999996 60,63.999996 68,69.999996 12,7 51,-4 155,-46 76,-30.999996 140,-54.999996 144,-52.999996 3,3 29,41.999996 58,88.999996 l 52,85 -68,64.000004 c -37,35 -88,81 -112,103 l -44,40 41,87 41,87 153,-3 153,-2 22,80.00004 c 12,44 22,87 22,96 1,11 -39,34 -131,76 l -133,59 -3,101.00002 -3,101 53,15 c 29,9 97,28 151,42 91,25.99996 97,28.99996 97,53.99996 -1,30 -19,173 -23,177 -1,1 -68,8 -148,15 l -147,12 -21,86 c -11,48 -21,93 -21,101 0,8 47,46 103,83 56,38 110,74 120,81 16,12 14,19 -25,105 -28,62 -46,91 -58,91 -9,0 -62,-11 -116,-24 -177,-43 -153,-48 -210,41 -27,42 -50,81 -52,85 -2,4 38,62 89,128 l 92,121 -73,67 c -40,37 -77,68 -81,70 -4,2 -55,-29 -114,-68 -58,-39 -112,-73 -120,-76 -8,-4 -45,20 -90,56 -41,35 -75,63 -75,64 0,0 20,63 44,139 l 44,138 -77,38 c -120,61 -106,64 -191,-46 -41,-53 -79,-102 -85,-110 -8,-11 -28,-7 -110,20 l -100,34 -3,141 c -1,78 -6,142 -10,142 -7,0 -112,16 -168,25 l -31,5 z m 1,-370 c 86,-14 118,-27 158,-64 55,-51 64,-140 27,-269 -46,-157 -187,-307 -290,-307 -89,0 -167,81 -259,269 -43,88 -51,115 -54,173 -4,60 -1,73 21,107 54,82 217,119 397,91 z m -945,-467 c 16,-9 60,-46 96,-82 72,-73 143,-198 154,-274 14,-92 -34,-184 -114,-221 -40,-18 -64,-21 -186,-21 -176,0 -230,13 -291,69 -36,32 -49,53 -59,94 -17,65 -5,119 48,214 121,216 229,284 352,221 z m 1828,-26 c 51,-22 105,-91 163,-210 60,-123 74,-190 54,-251 -35,-108 -137,-156 -331,-156 -209,0 -303,62 -302,200 2,127 145,365 248,411 47,22 123,24 168,6 z m -899,-538 c 73,-27 148,-96 183,-167 54,-110.99996 28,-258.99996 -65,-354.99998 -114,-118 -301,-130 -431,-27 -73,58 -115,149.00002 -116,249.00002 0,62.99996 5,85.99996 28,132.99996 74,151 249,224 401,167 z m -841,-538.99998 c 160,-60 179,-201 56,-412.00004 -84,-144 -155,-198.000004 -259,-198.000004 -105,0 -150,40.000004 -240,214.000004 -45,88 -55,116 -58,170.00004 -5,84 10,128 61,171 61,53 139,74 274,74 89,1 123,-3 166,-19 z m 1697,-31 c 86,-10 158,-36 194,-67 25,-23 66,-111 66,-144.00004 0,-45 -29,-118 -83,-208 -110,-182.000004 -198,-234.000004 -312,-181.000004 -126,58.000004 -265,265.000004 -265,394.000004 1,100.00004 57,174.00004 150,196.00004 93,22 142,24 250,10 z m -899,-452.00004 c 112,-59 248,-338 225,-460 -9,-50 -55,-100 -118,-128 -48,-22 -67,-24 -198,-24 -136,0 -148,2 -202,27 -83,39 -113,88 -112,182 2,79.999996 26,152.999996 82,249.999996 89,154.000004 211,212.000004 323,153.000004 z"
         id="path7256-7-9"
         style="fill:#7d7d7d;fill-opacity:1;stroke:#636363;stroke-width:35.5939;stroke-miterlimit:4;stroke-dasharray:none;stroke-opacity:1" />
      <path
         d="m 20940.149,6697.9124 -44,-131 -104,3 -105,3 -45,124 -45,123 -46,-6 c -25,-3 -73,-11 -107,-17 l -62,-11 -3,-140 -3,-141 -92,-33 -91,-33 -87,109 c -48,61 -90,108 -94,106 -121,-68 -171,-101 -171,-113 0,-9 16,-65 35,-124 19,-60 35,-115 35,-123 0,-14 -135,-126 -152,-126 -5,0 -59,32 -120,71 -61,39 -114,67 -117,62 -4,-4 -38,-42 -75,-85 -37,-42 -63,-79 -58,-82 5,-3 44,-51 87,-106 l 76,-100 -53,-85 c -36,-58 -58,-83 -68,-80 -16,5 -247,55 -254,55 -2,0 -15,-28 -29,-62 -14,-35 -32,-79 -41,-100 l -16,-36 113,-73 c 61,-39 114,-73 116,-75 5,-4 -30,-169 -38,-182 -4,-6 -67,-18 -141,-28 -74,-9 -136,-18 -138,-19 -2,-1 -6,-50 -9,-108 l -6,-105 44,-12 c 116,-30 222,-60 224,-62 1,-2 5,-45 9,-96 l 7,-93 -93,-43 c -51,-24 -110,-51 -130,-59 l -37,-16 13,-48 c 8,-26 22,-74 31,-107 l 16,-59 77,7 c 42,3 106,9 142,12 l 65,6 39,-88 40,-87 -107,-99 -107,-100 61,-89 c 33,-49 62,-89 65,-89 3,0 62,25 130,55 69,30 128,54 132,54 4,-1 36,-32 71,-70 47,-50 61,-72 54,-81 -6,-7 -38,-65 -72,-130 l -61,-116 85,-67 c 99,-77 76,-83 220,50 l 87,79 85,-43 c 73,-37 84,-47 79,-65 -16,-66 -38,-268 -30,-275 5,-5 50,-22 101,-39 l 92,-30 68,130 68,130 59,-7 c 32,-3 75,-12 95,-18 l 36,-12 29,-142 29,-143 h 107 107 l 22,138 c 13,75 24,142 26,148 3,9 137,34 182,34 6,0 42,-57 80,-126 37,-69 73,-128 79,-131 13,-5 182,55 190,68 3,5 -4,73 -16,151 -13,84 -18,144 -12,150 5,5 42,26 82,47 l 73,39 111,-99 c 61,-54 114,-99 117,-99 5,0 152,110 167,124 1,2 -31,63 -72,137 l -75,133 53,60 c 29,33 60,64 68,70 12,7 51,-4 155,-46 76,-31 140,-55 144,-53 3,3 29,42 58,89 l 52,85 -68,64 c -37,35 -88,81 -112,103 l -44,40 41,87 41,87 153,-3 153,-2 22,80 c 12,44 22,87 22,96 1,11 -39,34 -131,76 l -133,59 -3,101 -3,101 53,15 c 29,9 97,28 151,42 91,26 97,29 97,54 -1,30 -19,173 -23,177 -1,1 -68,8 -148,15 l -147,12 -21,86 c -11,48 -21,93 -21,101 0,8 47,46 103,83 56,38 110,74 120,81 16,12 14,19 -25,105 -28,62 -46,91 -58,91 -9,0 -62,-11 -116,-24 -177,-43 -153,-48 -210,41 -27,42 -50,81 -52,85 -2,4 38,62 89,128 l 92,121 -73,67 c -40,37 -77,68 -81,70 -4,2 -55,-29 -114,-68 -58,-39 -112,-73 -120,-76 -8,-4 -45,20 -90,56 -41,35 -75,63 -75,64 0,0 20,63 44,139 l 44,138 -77,38 c -120,61 -106,64 -191,-46 -41,-53 -79,-102 -85,-110 -8,-11 -28,-7 -110,20 l -100,34 -3,141 c -1,78 -6,142 -10,142 -7,0 -112,16 -168,25 l -31,5 z m 1,-370 c 86,-14 118,-27 158,-64 55,-51 64,-140 27,-269 -46,-157 -187,-307 -290,-307 -89,0 -167,81 -259,269 -43,88 -51,115 -54,173 -4,60 -1,73 21,107 54,82 217,119 397,91 z m -945,-467 c 16,-9 60,-46 96,-82 72,-73 143,-198 154,-274 14,-92 -34,-184 -114,-221 -40,-18 -64,-21 -186,-21 -176,0 -230,13 -291,69 -36,32 -49,53 -59,94 -17,65 -5,119 48,214 121,216 229,284 352,221 z m 1828,-26 c 51,-22 105,-91 163,-210 60,-123 74,-190 54,-251 -35,-108 -137,-156 -331,-156 -209,0 -303,62 -302,200 2,127 145,365 248,411 47,22 123,24 168,6 z m -899,-538 c 73,-27 148,-96 183,-167 54,-111 28,-259 -65,-355 -114,-118 -301,-130 -431,-27 -73,58 -115,149 -116,249 0,63 5,86 28,133 74,151 249,224 401,167 z m -841,-539 c 160,-60 179,-201 56,-412 -84,-144 -155,-198 -259,-198 -105,0 -150,40 -240,214 -45,88 -55,116 -58,170 -5,84 10,128 61,171 61,53 139,74 274,74 89,1 123,-3 166,-19 z m 1697,-31 c 86,-10 158,-36 194,-67 25,-23 66,-111 66,-144 0,-45 -29,-118 -83,-208 -110,-182 -198,-234 -312,-181 -126,58 -265,265 -265,394 1,100 57,174 150,196 93,22 142,24 250,10 z m -899,-452 c 112,-59 248,-338 225,-460 -9,-50 -55,-100 -118,-128 -48,-22 -67,-24 -198,-24 -136,0 -148,2 -202,27 -83,39 -113,88 -112,182 2,80 26,153 82,250 89,154 211,212 323,153 z"
         id="path7256-7"
         style="fill:#7d7d7d;fill-opacity:1;stroke:#636363;stroke-width:35.5939;stroke-miterlimit:4;stroke-dasharray:none;stroke-opacity:1" />
      <path
         d="m 18413.116,4097.7105 -90,-17 -3,-141 -3,-141 -89,-31 c -49,-17 -93,-31 -99,-31 -5,0 -46,47 -91,105 -45,59 -85,105 -89,103 -45,-19 -181,-104 -181,-113 0,-6 18,-62 40,-124 22,-61 40,-118 40,-125 0,-13 -138,-126 -153,-126 -3,0 -56,32 -117,70 -61,39 -112,70 -114,70 -2,0 -36,-36 -76,-80 l -72,-80 39,-47 c 22,-27 61,-76 87,-110 l 47,-63 -52,-77 c -29,-43 -53,-80 -55,-82 -3,-3 -211,41 -255,55 -13,3 -26,-18 -58,-98 -22,-56 -37,-104 -33,-107 5,-3 56,-37 115,-75 120,-77 112,-56 78,-196 l -16,-65 -137,-14 -137,-14 -5,-41 c -3,-22 -8,-71 -11,-107 l -6,-67 33,-10 c 18,-6 78,-23 133,-38 55,-15 103,-30 106,-33 4,-3 9,-46 13,-96 l 6,-90 -107,-49 c -60,-27 -118,-55 -129,-62 l -22,-13 28,-98 27,-98 h 49 c 27,1 92,3 144,5 l 95,4 37,-83.9999 36,-85 -105,-100 -106,-101 58,-84 c 32,-47 60,-87 62,-89 2,-2 62,21 135,52 l 132,57 24,-23 c 13,-12 42,-43 63,-69 l 40,-47 -65,-130 -66,-130.00003 85,-66 85,-67 110,101 109,100 80,-45 c 45,-26 81,-50 81,-56 0,-5 -9,-71 -21,-145 -11,-75 -17,-139 -12,-143 4,-4 50,-21 101,-37 l 92,-30 51,91 c 29,50 62,109 75,132 l 23,40 88,-15 c 48,-8 89,-15 91,-16 1,-2 15,-67 31,-146 l 28,-144 106,-3 105,-3 11,53 c 6,29 19,95 29,147 20,108 16,104 141,116 l 66,7 68,-126 c 38,-69 72,-128 76,-130 4,-3 51,11 104,31 86,31 96,38 92,57 -2,11 -11,66 -20,121 -8,55 -17,112 -20,127 -5,31 -2,33 91,84 l 71,38 94,-84 c 52,-46 104,-93 116,-103 21,-19 22,-18 100,43 43,35 79,66 81,70 1,3 -29,65 -68,135.00003 -39,71 -69,132 -68,136 2,3 31,36 65,73 l 62,68 108,-48 c 59,-26 123,-53 140,-60 l 33,-14 55,82 c 30,46 55,88 55,95 0,6 -15,23 -32,38 -18,15 -68,61 -110,101 l -77,73 40,86 41,86.9999 152,-7 153,-8 25,101 25,100 -136,60 -136,59 3,94 c 2,52 5,95 7,97 2,2 66,22 144,46 77,23 143,44 146,47 5,6 -12,190 -19,197 -2,2 -69,10 -147,19 -79,8 -145,17 -147,18 -2,2 -13,44 -26,94 -26,107 -38,87 116,190 l 107,71 -16,37 c -42,102 -74,154 -91,149 -9,-3 -66,-17 -127,-31 -60,-14 -117,-28 -125,-30 -10,-3 -32,22 -68,80 l -53,84 85,116 c 48,63 86,118 86,122 0,4 -32,40 -71,79 l -71,72 -120,-79 -121,-78 -41,29 c -22,17 -58,45 -80,63 l -38,32 41,131 c 23,71 41,134 41,140 0,14 -175,98 -188,90 -6,-3 -47,-54 -92,-111 l -80,-105 -96,35 c -53,19 -98,35 -100,35 -2,0 -5,64 -6,143 l -3,142 -99,12 c -55,7 -101,11 -104,9 -2,-3 -23,-60 -47,-128 l -43,-123 -103,-3 -104,-3 -46,128 c -28,77 -52,129 -60,129 -8,1 -54,-6 -104,-15 z m 598,-800 c 173,-45 323,-130 460,-260 43,-41 83,-83 87,-92 8,-14 -21,-34 -187,-129 l -196,-113 -61,33 c -33,19 -97,55 -141,80 l -80,46 -3,227 -2,227 h 23 c 13,0 58,-9 100,-19 z m -395,-212 -3,-221 -139,-79 c -76,-44 -144,-79 -151,-77 -29,7 -375,214 -375,224 0,23 140,161 215,213 131,91 307,159 413,160 l 42,1 z m -617,-496 189,-108 v -175 -175 l -122,-72 c -68,-39 -158,-91 -200,-117 l -77,-45 -25,77 c -68,216 -66,427 5,658 11,35 25,64 31,64 6,0 95,-48 199,-107 z m 1728,52 c 57,-152 76,-366 46,-524 -20,-103 -53,-211 -65,-211 -5,0 -95,50 -200,111 l -190,111 v 177 177 l 183,106 c 100,59 187,107 194,108 6,0 21,-25 32,-55 z m -879,-72 c 159,-51 242,-248 169,-403 -66,-140 -210,-207 -354,-165 -46,13 -70,28 -115,73 -67,67 -90,124 -90,222 0,201 193,337 390,273 z m -383,-771 148,-87.9999 3,-228 2,-228 -42,7 c -128,20 -292,87 -413,168 -61,41 -245,219 -245,236 0,5 8,12 18,15 9,3 94,51 187,105.9999 94,55 175,100 182,100 6,0 78,-40 160,-88 z m 931,-22 c 100,-56.9999 182,-108.9999 182,-114.9999 0,-17 -138,-156 -207,-208 -119,-91 -305,-173 -436,-192 l -47,-7 v 228 229 l 148,86.9999 c 81,48 154,86 162,85 9,-1 98,-49 198,-107 z"
         id="path7254-0"
         style="fill:#7d7d7d;fill-opacity:1;stroke:#636363;stroke-width:35.5939;stroke-miterlimit:4;stroke-dasharray:none;stroke-opacity:1" />
    </g>
  </g>
</svg>
